<svg version="1.0" xmlns="http://www.w3.org/2000/svg" width="3150.667" height="3156" viewBox="0 0 2363 2367"><g fill="#ff5700"><path d="M1033.8 9.2c-1.4 2.1-2.4 2.3-9.9 2.5-12.6.2-27.4 4.8-31.8 9.8-1.1 1.4-3.3 2.7-4.8 3.1-1.5.4-3.6 1.5-4.6 2.5-1 1.1-2.2 1.9-2.7 1.9-1.3 0-16.9 15.7-19.7 19.8-1.3 1.8-2.3 4-2.3 4.8 0 .8-1.5 2.9-3.4 4.7-1.9 1.8-3.9 5-4.6 7.2-.7 2.2-2.1 5.3-3.1 7-1.1 1.6-1.9 4.6-1.9 6.5 0 1.9-1.2 6.6-2.5 10.5l-2.5 7v126.1l-2.5 5c-1.3 2.7-4.7 7.2-7.5 10-4.3 4.3-6.5 5.7-13.8 8.2-4.8 1.7-11.8 3.8-15.7 4.8-3.8.9-8.2 2.3-9.7 3.1-1.5.7-3.7 1.3-5 1.3-2.4 0-10.3 2.8-15.3 5.4-1.6.9-3.9 1.6-5 1.6s-3 .7-4.2 1.5c-1.2.8-4.3 1.8-7 2.1-2.6.4-5.6 1.3-6.5 2.2-1 .8-7.5 3.4-14.5 5.7-7 2.4-15.7 5.7-19.3 7.4-3.6 1.7-7 3.1-7.7 3.1-.7 0-2.9 1.1-4.9 2.5-2 1.4-4.4 2.5-5.3 2.5-.9 0-2.5.7-3.5 1.5-1.1.8-2.7 1.5-3.5 1.5-.8 0-3.3.9-5.5 1.9-2.3 1-7.7 3.5-12.1 5.6-7.1 3.2-14.8 7.1-26.5 13-5.1 2.6-6.9 3.6-12.5 6.2-2.7 1.3-5.7 2.8-6.5 3.3-.8.4-6.2 3.2-11.9 6.1-5.7 3-11.6 6.7-13.2 8.3-2.6 2.6-3.4 2.9-10.7 3-7.1.1-8.1-.2-11-2.6-1.8-1.5-4.2-3-5.4-3.4-2.2-.7-3.1-1.3-7.7-5.4-9-8.1-11.7-10-14.2-10-3.4 0-5.9-2.4-5.9-5.6 0-4.7-.7-5.6-15.5-20.2l-8-8c-.5-.6-7.5-7.6-15.5-15.5-8-8-15.1-15.1-15.8-16-.6-.9-1.9-1.4-2.8-1-.9.3-2.9-.8-5.2-3.1-7.3-7.3-8.8-8.6-9.7-8.6-.5 0-1.8-1.1-3-2.4-1.9-2.3-12.1-6.6-21-8.9-2.2-.5-5.5-1.6-7.3-2.4-4.8-2.1-32.5-3-38.9-1.3-14 3.7-30.4 9.9-33.3 12.6-5.1 4.7-11.3 9.4-12.5 9.4-.7 0-9.2 7.8-18.8 17.4-9.6 9.5-18.2 17.6-19.1 17.9-.9.4-2 1.5-2.3 2.4-.4 1-4.8 5.7-9.8 10.6-4.9 4.8-9.4 9.2-10 9.8-1.5 1.5-24.8 24.7-26.3 26.1-.7.7-5.6 5.7-10.8 11-5.2 5.4-9.9 9.8-10.4 9.8-.6 0-1 .5-1 1.2 0 1.3-17.7 18.8-19 18.8-.5 0-1.4.9-2 2-.6 1-6.3 7.1-12.8 13.5-14.3 14.1-11.6 11.3-21.9 22.1-4.9 5.1-9.8 9.7-11 10.3-1.3.7-2.3 1.6-2.3 2 0 1.2-22.8 24.1-24 24.1-.5 0-1.4.8-1.9 1.7-.5 1-2.8 3.8-5.1 6.3-3.8 4.1-12 15.3-12 16.4 0 .3-1.1 1.6-2.5 3s-2.5 3.3-2.5 4.3-.9 3.5-1.9 5.5c-1.1 2-2.7 6.2-3.5 9.5-.8 3.2-2.4 8.7-3.6 12.2-1.4 4.4-2 9-2 15 0 7.9 2.2 24 3.5 26.2.4.5 1.2 3.4 2 6.4.8 3 2.8 7.9 4.5 10.8 1.6 3 3 6.1 3 7 0 .9.7 2.5 1.5 3.4 6.6 7.8 10.8 12.3 13 14.1.9.8 1.3 2.1 1.1 3-.4 1.2 1.5 3.6 6 7.7 3.7 3.3 9.4 8.9 12.8 12.4 3.3 3.5 9.4 9.5 13.4 13.5 4.1 3.9 8.8 8.6 10.5 10.5 1.8 1.8 5.1 5.2 7.5 7.5 2.4 2.2 11.7 11.3 20.8 20.1l16.4 16V692c0 7.4-.4 14.1-.9 14.9-.5.8-2.6 1.7-4.7 2-3.3.5-3.9 1.1-4.5 3.8-.5 2.8-7 16.7-14.7 31.8-1.4 2.7-3.4 5.6-4.4 6.3-1 .7-1.8 1.9-1.8 2.6 0 1.4-9.7 23.5-13.5 30.7-1.4 2.6-2.5 5.5-2.5 6.6 0 1-.6 2.7-1.3 3.8-.7 1.1-1.9 3.6-2.7 5.5-.7 1.9-1.8 4.2-2.5 5-.6.8-1.9 4-2.9 7-1.5 4.9-5.4 13.7-7.8 18-1.2 2.1-1.4 2.8-3.3 10-.9 3.6-2.2 7.4-2.8 8.5-.5 1.1-2.5 6.6-4.3 12.2-1.9 5.6-4.7 13.2-6.4 16.9-1.6 3.7-3 8.1-3 9.8 0 1.7-.6 4.3-1.4 5.8-.8 1.4-2.2 5.9-3.1 10-1 4-2.4 9.1-3.2 11.3-.9 2.2-2.2 5.8-3 8-1.7 4.6-12.2 15.3-17.6 17.8-3.2 1.5-9.7 1.7-66.4 1.7h-63l-6.1 2.5c-3.4 1.4-8.1 2.5-10.4 2.5-2.4 0-5.6.8-7.3 1.9-1.7 1-4.8 2.4-7 3.1-6.8 2.2-10.9 4.6-19.1 11.5-10.9 9.2-16.9 15.9-21.2 23.5-2 3.6-4.6 7.3-5.8 8.2-1.2 1-2.6 3.4-3.2 5.5-.6 2.1-1.9 6.3-3 9.3-1 3-2.4 9-3.1 13.3-.7 4.3-1.9 9-2.7 10.5-2.1 4-2.1 293.9 0 298 .7 1.5 1.9 6.1 2.5 10.2.7 4.1 1.7 9.3 2.3 11.5 1.7 6.4 6.1 16.7 7.4 17.2.6.2 2 2.3 3 4.6 3.1 6.9 4.9 9.4 14.3 19.3 5 5.2 12.3 10.7 16 11.9 1.2.3 2.8 1.7 3.7 3 1.5 2.2 8.8 5.5 12.4 5.5.9 0 2.5.8 3.4 1.9 1 1.1 3.7 2.1 7.2 2.5 3 .3 7.8 1.5 10.7 2.6 5 1.9 7.8 2 68.2 2h63l5 2.4c7.7 3.7 15 12.5 18.4 22.2 1.5 4.3 3.3 10.6 4 13.9.7 3.3 2.1 7.9 3.2 10.3 1 2.3 1.9 5.4 1.9 6.8 0 1.5.9 4.3 2 6.3 2.7 5 7 17.5 8.4 24.2.6 3.2 1.8 6.5 2.7 7.5.8 1.1 2.5 5 3.7 8.9 3.7 12.3 6.2 18.8 7.6 20.4.8.9 2.1 4.3 3 7.5.8 3.3 1.9 6.2 2.5 6.5.6.4 1.7 2.5 2.6 4.6 1.8 4.6 3.4 8.2 6.2 14.5 1.2 2.5 3.7 8.3 5.8 13 2 4.7 4.5 10.1 5.5 12 .9 1.9 6.2 12.2 11.6 22.7 5.5 10.6 10.7 21 11.8 23 1 2.1 2.4 4.5 3.1 5.3 1.9 2.2 6.5 16.3 6.5 19.9 0 7.2-2.8 14.2-7.9 19.4-9.5 9.9-14.1 15.4-14.1 16.9 0 2-2.1 3.8-4.4 3.8-1 0-2.6.7-3.5 1.5-2.2 2-9.5 9.2-16.8 16.7-3.4 3.5-8.2 8.2-10.5 10.5-6.2 6-7.2 7.4-7.8 10.2-.3 1.5-1.3 2.7-2.5 3-1.9.3-7.2 4.6-15.6 12.5-1.9 1.8-4.8 5.5-6.4 8.2-1.5 2.6-4.2 6.3-6 8.2-6.2 6.7-6.8 7.5-7.7 11.6-.5 2.2-1.5 4.8-2.2 5.6-.7.8-2.1 4.2-3.1 7.5-.9 3.3-2.4 7.6-3.1 9.5-2.9 7.8-3.7 25.9-1.7 38.5 1.3 8 5.6 21.1 7.8 23.5.7.8 1.8 3.4 2.3 5.6.9 4.1 2 5.7 7.9 11.7 1.8 1.7 3.7 4.3 4.3 5.7 2 4.6 3.5 6.7 7.7 10.6 5.1 4.7 11.4 10.8 13 12.6l2.3 2.3c.5.5 5.3 5.4 10.5 10.7 5.3 5.4 10 9.8 10.5 9.8s1.1.8 1.5 1.8c.3 1.1 1.7 2.4 3 3 1.4.6 2.5 1.6 2.5 2.2 0 1 2.4 3.5 12.1 12.8 1.9 1.8 4.1 4 5 5 1 .9 3.3 3.2 5.3 5 2 1.8 3.6 3.6 3.6 4 0 .4 3.2 3.6 7 7.2 3.9 3.6 9.8 9.4 13.3 12.9 3.4 3.5 7 7.1 7.9 8 3.1 2.9 19.6 19.4 33.3 33.3 7.4 7.5 13.5 14.2 13.5 14.8 0 .5.5 1 1.2 1 1.4 0 3.3 1.8 15.5 14.3.7.6 1.7 1.6 2.3 2.2.6.5 4.1 4.1 7.9 8 3.9 3.8 7.6 7.6 8.3 8.2.7.7 1.9 1.8 2.5 2.5.7.7 2.8 2.9 4.7 4.8 1.9 1.9 5.5 5.6 7.9 8.3 2.4 2.6 4.6 4.7 5 4.7.3 0 1.9 1.2 3.4 2.7 1.6 1.6 5.5 4.3 8.5 6.1 3.1 1.9 5.9 4 6.2 4.7.3.8 2.4 1.9 4.8 2.6 2.4.6 6.3 2 8.7 3.1 2.4 1.1 7.6 2.8 11.5 3.8 3.9 1 8.4 2.3 9.9 2.9 6 2.3 26.1 1.1 37.7-2.4 2.5-.7 6.5-1.6 8.8-1.8 2.4-.3 5.4-1.4 6.5-2.5 2.6-2.4 8.1-5.2 10-5.2.8 0 3.5-1.9 6.1-4.3 4.4-3.9 9.4-7.3 14.1-9.7 1.1-.5 3.6-2.8 5.5-5s7.5-8 12.3-12.8l15.7-15.7c3.8-3.9 8.7-8.8 10.9-11 2.2-2.2 5.7-5.7 7.8-7.7 7.4-7.3 12.1-12.6 13.5-15.4.7-1.6 2.1-2.9 3-2.9.9 0 2.5-.8 3.5-1.7 10.5-10.1 13.9-12.9 15.7-13.2 1.1-.2 4.6-1 7.6-1.6 6.7-1.5 11.9-.2 22.5 5.5 3.9 2 8.6 4.5 10.5 5.5 8.2 4.4 59.1 29.1 66 32 4.1 1.8 8.9 3.8 10.5 4.6 1.7.7 4.2 1.5 5.7 1.9 1.5.4 3.2 1.3 3.9 2.1.6.8 1.8 1.4 2.7 1.4.8 0 4.4 1.5 8.1 3.4 3.6 1.8 7.7 3.7 9.1 4.1 1.4.4 3.9 1.3 5.5 2 4.8 1.9 12.9 4.5 14.3 4.5.7 0 3 1.1 5 2.5 2.2 1.5 5.1 2.5 7.2 2.5 2 0 4.5.7 5.6 1.5 1 .8 3 1.5 4.4 1.5 1.4 0 4 .9 5.8 2 1.8 1.1 4.1 2 5 2 1 0 2.7.7 3.8 1.5 1 .8 3 1.5 4.4 1.5 1.4 0 4.2.9 6.3 2 2 1.1 4.7 2 5.8 2 2.4 0 13.4 3.1 22.1 6.2 7.3 2.6 15.5 9.9 19.1 16.9l2.7 5.4v63.3c0 62.1 0 63.4 2.1 67.9 1.1 2.5 2.3 7.1 2.6 10.2.3 3.1 1.4 7.2 2.5 9.1 1.1 1.9 2.7 5.6 3.5 8.2.8 2.7 2.2 5.2 3.4 5.9 1.1.6 2.6 2.3 3.3 3.7 2 4.6 5.8 10.2 6.7 10.2.5 0 1.4 1.1 1.9 2.5s1.3 2.5 1.7 2.5c.5 0 3.1 2.2 5.9 4.8 6.4 5.9 10.3 8.7 13.2 9.6 1.3.4 3.8 2 5.5 3.6 4.1 3.5 22.7 10 28.8 10 3.3 0 5.1.6 6.4 2 1.8 2 3.1 2 150.7 2 131 0 149.3-.2 151.8-1.5 1.6-.8 5.8-1.8 9.2-2.1 10.5-1 28-7 29.7-10.2.5-1 2.8-2.4 5-3.2 2.3-.7 6.2-3.2 8.9-5.6 2.6-2.3 5.9-5.3 7.5-6.6 1.5-1.2 3.3-2.9 4-3.6.6-.8 2.1-2.4 3.3-3.5 1.1-1.2 3-4.2 4.3-6.7 1.2-2.5 3.6-5.9 5.2-7.5 2.7-2.9 5.1-8.4 8.5-20 .8-2.8 2.6-8.4 4-12.5l2.4-7.6v-125.7l2.6-4.6c6.3-11 16.2-17.3 33.9-21.6 3.9-.9 9.1-2.5 11.7-3.6 2.6-1 5.7-1.9 7.1-1.9 1.3 0 6-1.6 10.4-3.5 4.5-1.9 8.8-3.5 9.7-3.5.8 0 3.5-.9 5.8-1.9 5.8-2.6 14.1-5.5 21.3-7.7 3.3-1 7.1-2.4 8.5-3.1 1.4-.7 3.2-1.3 4-1.3.8 0 4.6-1.6 8.4-3.5 3.9-1.9 7.8-3.5 8.9-3.5 1.1 0 3.2-1.1 4.9-2.5 1.6-1.4 3.6-2.5 4.5-2.5 1.5 0 3.9-1 15-6.1 3.4-1.6 6.4-2.9 6.7-2.9.3 0 4.3-1.8 9-4s8.8-4 9.2-4c.4 0 1.5-.6 2.3-1.4 1.6-1.5 23.4-12.6 24.7-12.6.3 0 3.4-1.8 6.7-4 3.3-2.2 7.1-4.3 8.6-4.7 1.4-.3 6-2.3 10.1-4.4 7.4-3.7 19.6-6.9 26.5-6.9 3 0 4.3.8 8.7 5.5 4.1 4.4 5.7 5.5 8.2 5.5 4.1 0 5.6 1.6 5.6 5.7 0 3.5 2.6 5.8 5.4 4.7 2.1-.8 5.6 3.1 5.6 6.4 0 1.8 1.2 4.1 3.5 6.5 1.9 2 3.5 4.1 3.5 4.5 0 1.3 6.8 4.2 8.4 3.6 2.1-.8 5.6 3.1 5.6 6.2 0 3.9 11.8 17.4 15.2 17.4.9 0 2.3.8 3 1.7.7 1 2.2 2.3 3.3 2.9 1.1.6 2.1 2.2 2.3 3.6.4 3.6 14.7 17.8 17.9 17.8.6 0 7.6 5.9 11.9 10 2.8 2.7 25.3 10.7 34.4 12.2 10 1.7 26.9 2.1 31.9.7 11.2-3 22.5-7.1 24.8-8.9 1.4-1.1 3.8-2 5.4-2 2 0 4.4-1.6 9.1-6 3.4-3.3 7-6 7.8-6 .9 0 3.8-1.9 6.4-4.2 4.5-4 6.9-6.4 16.8-16.5 2.1-2.1 4.3-4.4 5-5 .7-.7 1.9-1.8 2.6-2.5 7-7 9.9-9.9 10.9-11l2.5-2.5c.7-.7 1.9-1.8 2.5-2.5 2.6-2.7 5.8-6 10.6-10.6 2.1-2 8-8 13.2-13.2 5.2-5.2 9.9-10 10.5-10.5.5-.6 5.1-5.2 10-10.2 5-5.1 10-9.7 11-10.3 1.1-.6 2-1.7 2-2.4s1.1-1.8 2.4-2.4c1.3-.6 2.7-2 3.1-3.1.3-1.1 1.5-2.3 2.6-2.6 1-.4 1.9-1 1.9-1.5 0-1.1 49.9-51 51.1-51 .5 0 1.5-1.1 2.1-2.5.6-1.3 1.9-2.7 2.9-3 1-.3 2.1-1.5 2.4-2.5.3-1 1.4-2.1 2.3-2.4.9-.3 3.3-2.6 5.2-5 1.9-2.5 4.5-4.9 5.8-5.5 1.2-.6 2.2-1.8 2.2-2.6s1.1-2.1 2.5-2.7c1.3-.6 2.7-1.8 3-2.7.3-.9 2.2-3 4.2-4.6 6.4-5.3 14.7-14.7 19.9-22.5 2-3 4.5-6.2 5.4-7 1-.8 2.4-3.5 3-6 .7-2.5 1.9-5.3 2.7-6.2.9-1 2-4.1 2.4-7 .5-2.8 1.6-6.8 2.6-8.7 2.4-5.1 2.6-37.3.2-44.1-.9-2.5-2.4-7.2-3.4-10.5-1.1-3.3-2.5-6.9-3.2-8-.7-1.1-1.3-3-1.3-4.2 0-1.3-1.3-3.7-3-5.5-1.6-1.7-3-3.6-3-4.3 0-.6-1.1-1.8-2.5-2.5s-3.5-3.4-4.7-5.8c-1.3-2.8-7.6-10-16.2-18.8-7.8-7.8-14.7-14.8-15.4-15.5-10.3-10.6-32.1-31.8-34.1-33.1-1.5-1-3.5-1.5-4.8-1.2-1.7.5-3.2-.5-6.7-4.3-2.6-2.7-4.6-5.7-4.5-6.8.3-4.5-.2-5.8-3.3-8.7-3.3-3-3.9-5.1-5.7-19.3-.9-6.7-.8-7.1 1.5-9.6 1.3-1.4 2.4-3.4 2.4-4.6 0-1.1 1.4-3.7 3-5.8 1.7-2.1 3-4.3 3-5 0-.7.7-1.8 1.5-2.5s2.2-3.6 3.1-6.5c.8-3 2.1-5.9 2.9-6.5.8-.6 1.9-2.8 2.6-4.8.6-2 1.7-4.4 2.4-5.2.6-.8 2.6-4.2 4.4-7.5 1.9-3.3 3.9-6.7 4.6-7.5.6-.8 1.8-3.1 2.5-5s2.9-6.9 4.7-11c8.7-18.8 10.3-22.7 10.3-24.4 0-.7 1.1-3 2.5-5s2.5-4.2 2.5-4.8c0-.6 1.5-4.3 3.4-8.2 3.2-6.8 4.7-11 8.2-22.1.9-2.8 2.7-7.5 3.9-10.5 1.3-3 2.6-7.1 3-9 .4-1.9 1.3-4.2 1.9-5 .7-.8 1.8-3.7 2.4-6.4.7-2.7 2.4-7.2 3.7-10.1 1.4-2.8 2.5-6.5 2.5-8.1 0-1.6.9-4.3 2-5.9 1.1-1.7 2-4 2-5.2 0-2.7 3.3-15 5.8-21.5 2.3-6.1 9.8-14.8 15.9-18.4l4.8-2.9 65-.5c58.9-.5 65.3-.7 68.7-2.2 2-1 6.3-2.1 9.5-2.4 3.2-.4 6.9-1.4 8.3-2.4 1.4-.9 4.5-2.2 7-2.9 4.2-1.2 10.2-4.7 17.4-10.3 4.5-3.5 19.6-18.6 19.6-19.6 0-.5.8-1.7 1.9-2.6 1-.9 2.1-3 2.5-4.7.3-1.6 1.9-4.2 3.5-5.7s3.4-4.3 4-6.2c.5-1.9 1.9-6 2.9-9 1.1-3.1 2.3-8.9 2.7-13 .4-4.5 1.5-8.8 2.6-10.6 1.8-3 1.9-7.6 1.9-149.2v-146.1l-2.2-4.2c-1.3-2.5-2.4-7.1-2.8-11.3-.9-8.9-5.5-23.2-8.4-26-1.2-1.1-3.7-4.8-5.5-8.1-3.6-6.5-4-7-12.8-15.8-6-6.1-12.6-11-16.2-12.2-1.2-.3-2.8-1.7-3.7-3-1.4-2.2-6-4.1-19.5-8.4-1.9-.6-5.4-1.1-7.7-1.1-2.4 0-6-1-8.4-2.3-4.3-2.2-4.3-2.2-67.8-2.7l-63.5-.5-4-2.4c-4.7-2.8-10.5-8.1-10.5-9.5 0-.5-.8-1.9-1.8-3-3.2-3.8-9.2-21.6-9.2-27.7 0-1.3-.9-3.8-2-5.4-1.1-1.7-2-4.3-2-5.8s-1.4-5.7-3-9.3c-1.7-3.5-3.3-7.9-3.7-9.7-.3-1.7-1.4-4.8-2.5-6.7-1-1.9-1.8-4.9-1.8-6.6 0-1.7-.9-4.3-2-5.7-1.2-1.4-2.9-5.8-4-9.8-1-3.9-2.3-7.6-2.9-8.2-.6-.6-1.1-2.1-1.1-3.2 0-1.2-1.1-4.4-2.5-7.1-1.4-2.7-3.3-7.1-4.2-9.9-1-2.7-2.8-6.5-4-8.4-1.3-1.9-2.3-4.2-2.3-5.2s-.4-2.1-1-2.4c-.5-.3-1.4-2.5-2.1-4.8-.6-2.3-1.7-4.9-2.4-5.7-.7-.8-1.8-3.3-2.5-5.4-1.1-3.3-10.8-23.2-14-28.6-.5-.8-4.3-8.5-8.5-17-4.1-8.5-9.6-19.3-12-23.9-5.4-10.2-7.2-17.8-5.6-23.1.6-2.1 1.1-5.1 1.1-6.8 0-3.2.1-3.3 16-19.8 2.5-2.6 4-5 4-6.6 0-2.6 2-4.1 4.3-3.3 1.2.5 13.7-10.3 13.7-11.9 0-.4 1.8-2.4 4-4.4 6-5.6 6.4-6 7.6-7.4.7-.7 3-2.9 5.2-4.8 2.3-1.9 4.1-3.9 4.2-4.3 0-.9 16.9-17.7 17.7-17.7 1.3 0 8.1-8 11.2-13 1.9-3 5.2-7.8 7.5-10.5 2.3-2.8 4.8-6.8 5.5-9 .7-2.2 1.9-4.7 2.6-5.5.7-.8 2.1-4 2.9-7 .9-3 2.2-6.9 2.8-8.5 2.1-6 3-16.2 2.5-28.5-.5-12.6-2.2-20.1-6.8-31.5-1.2-2.8-2.5-6.6-3.1-8.5-.5-1.9-1.7-4.2-2.6-5-2.1-1.9-5.3-6.5-7.5-10.5-.9-1.7-3.7-5.2-6.2-7.9-2.6-2.8-5.1-5.8-5.6-6.8s-1.4-1.8-2-1.8c-1.3 0-19.9-18.7-19.9-20 0-.6-.5-1-1.1-1-.5 0-11.1-10.2-23.5-22.8-12.3-12.5-22.8-23-23.2-23.4-7.6-7-25.2-24.9-25.2-25.7 0-.6-.4-1.1-1-1.1-1.3 0-20-18.6-20-19.9 0-.6-.9-1.5-2.1-2.1-1.1-.7-7.1-6.3-13.2-12.5-6.2-6.3-11.7-11.9-12.4-12.5-.6-.7-5.4-5.5-10.6-10.7l-10.4-10.4c-14.4-14.7-37.9-36.9-39.2-36.9-2 0-10.6-6.8-11.8-9.3-.6-1.3-5.1-3.3-13.4-6.2-6.9-2.3-13.5-4.8-14.8-5.4-1.5-.8-7.8-1.3-17.9-1.4-17.3-.2-19.6-.1-26.2 1.8-2.5.8-7.1 2.1-10.3 3-3.2.9-7.4 2.7-9.4 4.1-2 1.3-4.5 2.4-5.5 2.4-2.1 0-16.3 11.3-17.9 14.2-.5 1-2.1 1.8-3.4 1.8-1.5 0-3.7 1.4-5.7 3.5-7.7 8.2-11.3 12.7-11.8 14.8-.4 1.4-1.5 2.3-3 2.5-1.4.2-3.4 1.4-4.6 2.5-1.2 1.2-2.8 2.7-3.6 3.4-.7.7-1.9 1.8-2.5 2.5-.7.7-1.8 1.9-2.5 2.7-1.8 1.8-13.7 13.7-18.7 18.6-2.3 2.2-9.4 9.3-15.9 15.8-16.3 16.4-17.9 17.7-20.8 17.7-1.4 0-5 .7-7.9 1.5-5.1 1.5-5.5 1.5-12-1-3.8-1.4-8.4-3.5-10.3-4.7-2-1.2-13.3-7-25.2-12.9-11.9-5.9-22.2-11.4-22.9-12.3-.8-.9-2-1.6-2.7-1.6-1.4 0-27.9-11.5-34.6-15.1-1-.5-2.4-.9-3.1-.9-.8 0-2.9-1-4.8-2.3-1.9-1.2-5.4-2.8-7.9-3.6-2.5-.7-6.1-2.2-8-3.3-3.6-2.1-9.4-4.3-21-7.9-3.6-1.1-7.4-2.4-8.5-2.9-1.1-.5-4-1.6-6.5-2.4-2.5-.8-6.1-2.1-8-2.9-1.9-.8-6.2-2.3-9.5-3.2-3.3-1-7.4-2.7-9.1-3.7-1.7-1-4.3-1.8-5.7-1.8-1.5 0-4.1-.9-5.9-2-1.8-1.1-4.3-2-5.5-2-5.3 0-26.4-6.9-29.7-9.7-6.3-5.4-11.7-11.8-12.6-15.1-.6-2.3-1-26.7-1-66.3 0-61.1 0-62.7-2-65.2-1.1-1.4-2-3.8-2-5.4 0-3.6-3.4-16.8-4.7-18.6-.6-.6-1.3-2.7-1.7-4.6-.3-1.8-2.2-5.1-4.1-7.2-1.9-2.2-3.5-4.8-3.5-5.9 0-1.1-.5-2-1-2-.6 0-1.6-1.2-2.3-2.8-2.2-5-16.2-17.9-24.2-22.2-4.1-2.3-7.5-4.6-7.5-5.1 0-.6-1.7-1.7-3.7-2.5-2.1-.9-5.1-2.2-6.8-2.9-5.6-2.3-14-3.8-20.7-3.7-5.4.2-7.5-.3-11.4-2.3l-4.7-2.5h-286.5l-1.4 2.2zm296 81.3c2 1.4 4.2 2.5 4.7 2.5.6 0 2.2 1.5 3.6 3.2l2.4 3.3.6 63.5c.5 58.4 1 69.1 3.3 72.8.3.6 1.1 3.6 1.7 6.6.5 3.1 2.6 8.7 4.4 12.6 1.9 3.8 3.5 7.8 3.5 8.9 0 1.1.4 2.2.9 2.6.6.3 2.4 3 4.1 6 4.1 7.2 10.4 14.8 18.1 22.1.6.6 2.9 3 5.1 5.2 2.2 2.3 4.8 4.4 5.9 4.7 1 .4 1.9 1 1.9 1.5s1.6 1.4 3.5 2c2 .7 4.6 2.2 5.8 3.4 1.2 1.3 3.8 2.9 5.7 3.5 1.9.7 4.4 1.7 5.5 2.1 4.4 1.8 12 4 13.8 4 1 0 3.2 1.1 4.9 2.5 2.1 1.8 4.1 2.5 7.3 2.5 2.6 0 4.7.6 5.5 1.5.7.8 2 1.5 2.9 1.5 1 0 4 .7 6.7 1.5s8.7 2.7 13.4 4.1c4.7 1.5 9.7 3.3 11.1 4 1.5.8 5.3 2 8.5 2.8 5.7 1.4 19.6 6.8 21.8 8.5.6.4 4 1.8 7.6 3 8.3 2.9 27.2 11 28.5 12.2.5.5 1.9.9 3.1.9 1.8 0 10.9 4.2 20.4 9.5 2.8 1.6 7.3 3.9 11 5.5 8.5 3.9 19 9.4 19 10 0 .4 1.9 1.2 4.3 1.9 2.3.7 4.9 1.9 5.7 2.5.8.7 2.9 1.8 4.7 2.5 1.8.7 3.9 2.3 4.7 3.5.9 1.4 3.4 2.8 6.3 3.6 2.6.7 6 2.2 7.5 3.2 1.4 1 3.9 1.8 5.5 1.8 1.5 0 4.2.9 5.9 1.9 7.6 4.7 52.4 5.4 62.2 1 2.5-1 5-1.9 5.6-1.9.7 0 3.4-1.1 6.2-2.4 2.7-1.3 7.1-3.2 9.9-4.2 2.7-1 7.3-3.8 10.2-6.1 2.9-2.4 5.7-4.3 6.1-4.3.5 0 4.7-3.9 9.3-8.6 4.6-4.7 10.3-10.5 12.7-12.7 10.1-9.8 46-45.6 49.3-49.3 5.2-5.7 13.9-13.7 17.9-16.5 3-2.1 4.7-2.4 11.6-2.4 7.3 0 8.5.3 12.5 3 2.4 1.6 4.6 3.4 4.7 3.8.7 1.5 29.9 30.3 38.3 37.7 9.6 8.5 24.9 24 24.9 25.3 0 .4 16.8 17.6 37.3 38.2 20.4 20.5 37.7 37.8 38.2 38.4l13 13c6.6 6.6 12.6 12.5 13.3 13.3 14.2 14.4 28.3 27.7 29.9 28.2 3.9 1.2 5.3 4 5.9 11.8.4 4.1.3 9.7 0 12.3-.7 4.7-1.5 5.5-44.4 48.4-28.4 28.4-44.7 45.4-46.6 48.6-1.6 2.8-4.1 6.3-5.6 8-1.5 1.6-3.4 4.8-4.1 7-.8 2.2-2.2 5.3-3.1 7-1 1.6-1.8 4.1-1.8 5.5 0 1.4-.9 4.2-1.9 6.1-5.3 9.9-5.4 50.5-.1 62.1 1.1 2.4 2 5.7 2 7.4 0 1.7.9 4.3 2.1 5.8 1.1 1.4 2.5 4.3 3.1 6.4.5 2 2 4.8 3.3 6.2 1.3 1.4 3.1 4.2 4.2 6.2 1 2 8.4 16.9 16.6 33 8.1 16.1 14.7 30.3 14.7 31.4 0 1.2.7 2.7 1.5 3.4.8.7 1.5 1.9 1.5 2.6 0 .8 1.8 5.2 4 9.8 2.2 4.6 4 9.2 4 10.3 0 1 .4 2.3.9 2.8.5.6 1.4 2.8 2.1 5 .7 2.2 1.9 4.9 2.6 6 .7 1.1 2.3 4.7 3.5 8 1.2 3.3 2.5 6.4 2.9 7 .4.5 1.1 2.8 1.4 5 .4 2.2 1.8 6.5 3 9.5 4 9.6 6.8 18.2 8.6 26 .7 3 1.8 6.2 2.5 7 .7.8 1.6 3.3 1.9 5.5.4 2.2 1.5 5.8 2.5 8s2.6 7.1 3.6 11c1 3.8 2.4 7.9 3.2 9 .7 1.1 1.3 2.7 1.3 3.6 0 1 1.1 3 2.4 4.6 1.3 1.5 3.9 5.7 5.8 9.3 1.9 3.6 5.1 8.1 7.2 10 2.1 1.9 4.3 4.1 4.9 4.8 6.1 6.5 14 13.4 18.7 16.2 2.3 1.4 5.6 3.5 7.5 4.6 1.8 1.2 4.4 2.5 5.6 2.9 1.3.4 5.2 2 8.6 3.6 3.3 1.7 8.6 3.4 11.6 3.9 3.1.5 7.7 1.7 10.4 2.7 4.4 1.6 10.2 1.8 68.8 2.3l64.1.5 3 2.5c1.6 1.3 4.1 4 5.4 6l2.5 3.5.3 146.8.2 146.9-3.2 4.9c-1.7 2.8-4.8 6-6.7 7.2-3.6 2.2-3.7 2.2-67.1 2.7-55 .5-64.2.8-68.5 2.2-2.7.9-6.9 1.9-9.2 2.2-2.3.3-6.3 1.7-9 3-2.6 1.3-6.6 2.9-8.8 3.6-2.2.7-4.7 1.8-5.5 2.5-.8.7-3.5 2.1-6 3.2-4.9 2.2-9.2 5.7-21.2 17.6-4.3 4.2-8.2 7.7-8.7 7.7s-1.4 1.2-2.1 2.7c-2.2 5.4-5.5 11-8.2 14.2-1.6 1.8-2.8 4-2.8 5 0 .9-.6 2.5-1.4 3.6-.7 1.1-2.2 5.4-3.2 9.5s-2.6 8.4-3.5 9.5c-.9 1.1-1.9 4.2-2.3 6.9-.3 2.7-1.3 5.7-2.1 6.6-.8.9-1.5 2.4-1.5 3.3 0 2.7-3.9 16.6-5.5 19.8-.8 1.5-1.5 3.6-1.5 4.6 0 1-1.1 3.8-2.4 6.3-1.3 2.5-2.7 6.5-3.1 9-.4 2.4-1.1 5.1-1.5 6-.5.8-1.8 4.2-3.1 7.5-1.2 3.3-2.8 6.7-3.5 7.5-.7.8-1.7 3.5-2.4 6s-1.5 4.9-1.9 5.5c-.4.5-1.5 3.5-2.6 6.5-1 3-2.9 7.5-4.2 9.9-1.3 2.4-2.3 5.2-2.3 6.1 0 1-.7 2.3-1.5 3-.8.7-1.5 1.9-1.5 2.8 0 1.4-6 15-8 18.2-.6.8-2.5 4.6-4.4 8.5-1.8 3.8-4.3 9-5.5 11.5-1.2 2.5-4.4 8.5-7.1 13.5-2.7 4.9-5.6 10.6-6.5 12.5-.9 1.9-2.7 4.6-4 6-1.3 1.4-2.8 4.2-3.4 6.4-.5 2.1-1.7 4.6-2.5 5.5-.9 1-2 4-2.5 6.7s-1.7 6.6-2.5 8.6c-2.6 6.2-3.9 21.9-3.1 39.2.5 14 .9 16.6 3.1 21.1 1.3 2.9 2.4 6.4 2.4 7.8 0 1.4 1.1 3.8 2.3 5.4 1.3 1.5 2.7 4 3.1 5.5.3 1.5 2.6 4.3 5 6.3 3.3 2.6 4.5 4.5 5 7.3.5 3.2 4.3 7.4 29.6 32.6 16 15.9 29 29.6 29 30.3 0 .8 6.7 8.1 15 16.3 16 16.1 17 17.7 17 27.6 0 5.6-3.9 14.7-7.1 16.4-1 .6-3.6 2.8-5.6 5-2.1 2.2-6.7 6.8-10.2 10.2-3.6 3.5-9.2 9.2-12.7 12.8-3.4 3.6-6.9 7.2-7.8 8-.9.8-7 6.9-13.6 13.5s-12.5 12.4-13.1 13c-.6.5-5.2 5.3-10.4 10.5-5.1 5.2-9.9 10.1-10.7 10.8-2.4 2.3-25.3 25-26.3 26.1-.8.9-16.7 16.8-21 21l-27 27c-.5.6-9 9.1-18.8 18.8-9.8 9.8-18.5 18.6-19.4 19.5-2.8 3.1-7.9 4.8-14.7 4.8-9 0-12.1-1.8-23.6-13.3-5.2-5.2-18.6-18.7-29.7-29.8-46.9-47.2-53.3-52.9-65.8-57.6-2.2-.8-6-2.4-8.5-3.6-5.4-2.4-9.8-4.3-12.5-5.2-4.1-1.5-30.3-2.3-43.4-1.4-10.5.7-14.1 1.4-16.6 2.9-1.8 1.1-4.4 2-5.9 2-1.4 0-5.2 1.4-8.3 3-3.1 1.6-6.3 3-7.1 3-.8 0-3.2 1.6-5.3 3.5-2.2 1.9-4.8 3.5-5.9 3.5-1 0-2.3.6-2.7 1.3-.8 1.3-13.3 7.7-15 7.7-.4 0-2.8 1.4-5.2 3-2.4 1.6-5.8 3.2-7.7 3.6-1.8.3-3.8 1.2-4.4 2-.7.7-2.8 1.8-4.8 2.5-2 .6-4.6 1.9-5.7 2.9-1.1 1-3.7 2.3-5.7 2.9-2 .7-4.2 1.8-4.8 2.6-.7.8-2.8 1.7-4.9 2.1-2 .4-4.7 1.2-6.1 2-5.3 2.7-17.6 8.2-20 8.8-3.6 1-7.8 2.7-22.1 9-6.9 3.1-13.6 5.6-14.9 5.6-1.2 0-4.8 1.1-7.9 2.3-3.1 1.3-7.6 3.1-10.1 3.9-2.5.9-5.8 2.1-7.5 2.6-1.6.6-5.7 1.6-9 2.3-3.3.7-7.6 2.1-9.5 3.1-1.9 1-4.1 1.8-4.8 1.8-.7 0-3.4.8-6 1.9-2.6 1-7.6 2.7-11.2 3.6-8.7 2.3-16.7 6-20.8 9.6-1.8 1.6-4.1 2.9-5.1 2.9s-2.4.6-3 1.4c-.7.8-2.3 1.7-3.6 2-1.4.4-2.5 1-2.5 1.5s-3.6 4.5-8 8.9-8 8.4-8 8.8c0 .5-.9 1.5-2 2.1-1.1.7-3.8 4.7-6.1 8.8-2.2 4.1-4.7 7.9-5.5 8.3-.8.5-2.1 3.6-2.9 7-.8 3.5-2.1 7.3-2.9 8.5-.8 1.2-1.9 4.7-2.5 7.7-.5 3-1.8 7.7-2.8 10.5-1.6 4.5-1.8 11.1-2.3 68.5l-.5 63.5-2.9 3.7c-1.5 2.1-3.4 3.8-4.1 3.8-.7 0-2.4.9-3.8 2-2.5 2-4 2-149.1 2H1034l-3.9-2.6c-2.2-1.4-5.2-4.4-6.8-6.6l-2.8-4.1-.5-63.6c-.5-57.4-.7-64-2.2-68.1-1-2.5-2.1-7-2.4-10-.4-3-1.7-7.3-2.9-9.5-1.3-2.2-2.8-5.8-3.5-8-.7-2.2-2.1-5.1-3.1-6.4-1.1-1.3-1.9-2.8-1.9-3.3 0-1.3-5-8.9-7.7-11.8-15.6-16.6-21.4-21.8-27.3-24.9-3.6-1.9-6.8-4-7.3-4.7-.4-.7-2.8-2-5.5-3-2.6-1-5.1-2-5.7-2.4-.5-.4-3.9-1.5-7.5-2.4-3.6-1-7.4-2.2-8.5-2.6-1.1-.5-4.5-1.6-7.5-2.5-3-.9-6.6-2.2-8-2.9-1.4-.8-5.2-2-8.5-2.7-3.3-.7-8-2.1-10.4-3.1-2.4-1-6-2.3-8-2.8-6.8-1.7-32.3-10.9-34.8-12.5-1.3-.9-5.9-2.8-10.1-4.2-4.2-1.4-11.4-4.3-15.8-6.4-4.5-2.2-8.8-3.9-9.6-3.9-.8 0-2.3-.7-3.4-1.5-1-.8-2.5-1.5-3.3-1.5-1.4 0-13.1-5.1-16.1-7-.8-.5-3.7-2-6.5-3.4-2.7-1.4-5.7-3-6.5-3.5-.8-.5-8.1-4.2-16.2-8.1-8.1-3.9-15-7.5-15.3-8-.4-.6-1.4-1-2.4-1-.9 0-3.4-1.6-5.4-3.5-2-1.9-4.3-3.5-5.1-3.5-.7 0-3.8-1.4-6.9-3-3.1-1.7-6.8-3-8.2-3-1.4 0-4.3-.9-6.5-2-8.9-4.5-54.1-4.5-61.8 0-1.8 1.1-4.2 2-5.3 2-1.1 0-4.9 1.3-8.4 3-3.5 1.6-7.1 3-8 3-.9 0-3.1 1.6-5.1 3.5-1.9 1.9-3.9 3.5-4.5 3.5-.9 0-10.9 7.5-13.1 9.8-.4.4-3.5 3.6-6.8 7.2s-6.5 6.9-7.1 7.5c-.5.5-10.4 10.3-21.9 21.8-11.4 11.4-21.3 20.7-21.8 20.7-.6 0-1.3.8-1.6 1.7-.3 1-2.1 3.2-3.8 5-1.8 1.7-6.8 6.7-11 11l-7.8 7.8h-11.9c-11.3 0-12.1-.1-14.5-2.4-1.4-1.4-2.6-3-2.6-3.7 0-.6-1.8-2.9-4.1-5-4.7-4.5-41.5-41.3-50.5-50.6-3.4-3.5-6.7-6.8-7.4-7.4-2.9-2.8-5.4-5.3-11.2-11.3-3.5-3.5-6.9-6.8-7.6-7.5-.7-.6-3-2.9-5-5-2-2.2-5.7-5.8-8.1-8-4.4-4.1-16.6-16.3-18.7-18.8-.6-.7-2.9-2.9-5-4.9-2.1-2-5.6-5.5-7.7-7.8-2.1-2.2-4.4-4.1-5.1-4.1-1.5 0-17.6-15.5-17.6-17 0-.5-5.6-6.5-12.4-13.5-6.8-6.9-13.1-13.6-14-15-.9-1.4-2.2-2.5-2.8-2.5-1.2 0-7.8-6.5-7.8-7.7 0-.4-2.7-3-6-5.7-7.7-6.4-10-11-10-20.2 0-5.1.5-7.7 2-10.1 1-1.8 20.8-22.2 44-45.3 23.1-23.2 42.7-43.5 43.5-45.1.9-1.6 1.9-2.9 2.4-2.9 1.3 0 7.5-10.9 8.9-15.6.7-2.3 1.9-4.7 2.7-5.4.8-.7 1.7-2.8 2.1-4.9.3-2 1.2-4.5 1.8-5.6 3.1-5.1 3.8-11.2 3.7-31.3 0-23.2-.5-28.4-3.2-32.8-1.1-1.7-1.9-4.6-1.9-6.3 0-1.7-1.4-5.7-3-8.8-1.7-3.1-3-6.4-3-7.4s-1-2.5-2.2-3.4c-2.2-1.5-5-6-8.3-13.5-.8-1.9-2.2-4.9-3.1-6.5-7-13.1-9.1-17.3-9.7-19-.4-1.1-3.8-8-7.7-15.4-3.8-7.3-7-13.9-7-14.7 0-.8-.9-3.1-2-5.1-1.1-2.1-2-4.4-2-5.1 0-.7-1.1-3.2-2.4-5.5-1.3-2.3-3-6.2-3.7-8.7-.7-2.5-1.9-5.4-2.6-6.5-.7-1.1-1.3-2.7-1.3-3.6 0-.9-1-3.6-2.3-6-1.3-2.4-3.2-6.7-4.2-9.4-.9-2.8-2.4-6.4-3.1-8.2-.8-1.7-1.4-4-1.4-5 0-1.1-1.1-4.2-2.5-6.9s-2.5-5.8-2.5-6.9c0-1.1-1.1-4.3-2.3-7-1.3-2.8-3-8.5-3.7-12.9-.8-4.3-2-8-2.7-8.3-.6-.3-1.5-1.9-1.8-3.6-.3-1.8-1.4-5.5-2.5-8.2-1-2.8-2.6-7.9-3.5-11.5-1-3.6-2.3-7.4-3-8.5-.6-1.1-1.5-3.3-1.9-4.9-.4-1.7-2.1-4.5-3.7-6.3-1.6-1.9-2.9-3.9-2.9-4.6-.1-2.3-5.5-9.2-14.1-18-4.7-4.8-9.2-8.7-9.8-8.7-.6 0-1.4-.6-1.7-1.4-.3-.8-3-2.9-6.1-4.8-3-1.8-7-4.3-8.9-5.5-1.9-1.3-4.2-2.3-5-2.3-.8 0-4.5-1.6-8.2-3.5-3.7-1.9-9.2-3.9-12.2-4.4-3-.6-7.5-1.5-10-2.2-3.2-.9-22.8-1.4-68.1-1.8l-63.5-.6-3.5-2.4c-1.9-1.3-4.6-4.3-6.2-6.6l-2.7-4.3v-293.7l3-4.4c1.6-2.4 4.4-5.4 6.2-6.7l3.2-2.4h61.7c50 0 62.3-.3 65-1.4 1.9-.7 7.5-2.1 12.4-3.1 5-1 11.5-3 14.5-4.6 3-1.6 7-3.1 8.8-3.5 1.7-.4 3.2-1 3.2-1.4 0-.4 2.1-1.7 4.7-2.8 2.7-1.2 6.8-3.9 9.2-6.2 2.5-2.2 4.8-4 5.3-4 1.1 0 13.8-13 13.8-14.1 0-.4.8-1 1.8-1.3 1.8-.6 2.4-1.5 6.9-10.7 1.2-2.5 3.1-5.4 4.3-6.4 1.1-1 2-2.3 2-2.8 0-.6.9-2.9 1.9-5.1 1-2.3 2.6-6.9 3.4-10.4.9-3.4 2.5-7.4 3.6-8.8 1.4-1.8 2.1-4.1 2.1-6.9 0-2.6.7-5.1 1.9-6.6 1-1.3 2.1-3.8 2.4-5.4.3-1.7 1-5.6 1.5-8.7.6-3.1 1.8-6.7 2.6-8 .8-1.3 1.9-4.1 2.4-6.3.6-2.2 1.9-6.3 3-9 1.1-2.8 2.7-7.5 3.7-10.5.9-3 3.4-9.2 5.6-13.7 2.1-4.6 3.9-9.1 3.9-10.1 0-.9.6-2.6 1.4-3.7.7-1.1 2.1-4.3 3-7 .9-2.8 2.7-7.2 4.1-9.9 1.4-2.7 2.5-5.5 2.5-6.1 0-.7.7-1.8 1.5-2.5s1.5-2.4 1.5-3.7c0-2.5 5.9-15.4 8.4-18.2.7-.9 1.9-3.2 2.5-5.1.6-1.9 3-7.1 5.2-11.5 2.3-4.4 4.8-9.4 5.6-11 .8-1.7 1.8-3.7 2.3-4.5.5-.8 2.6-4.9 4.7-9s5-8.8 6.4-10.3c1.5-1.5 3-4.4 3.4-6.5.4-2 1.6-4.7 2.7-5.9 1.1-1.1 2.2-4.1 2.5-6.5.3-2.3 1.4-6 2.4-8 4.3-8.6 4.3-47.3 0-55.3-1.3-2.5-2.1-5.7-2.1-9 0-3.2-.7-6.1-1.9-8.2-1.1-1.7-2.5-5.1-3.1-7.4-.7-2.4-3-6.9-5.3-10.2-2.3-3.3-4.9-6.9-5.7-8.2-.8-1.2-15.2-16.1-32-33-36.7-37-31.6-32-43.9-43.8-12.2-11.9-14.1-15.1-14.1-24.5 0-6.1.4-7.4 3.2-11.8 1.8-2.7 4.6-6 6.3-7.4 1.6-1.4 9.5-9.1 17.5-17.3 8-8.1 15.3-15.5 16.2-16.5 3.1-3.1 72.7-72.7 74.3-74.2 3.4-3.3 46.6-46.6 47.3-47.3.4-.5 5.2-5.2 10.7-10.5 5.5-5.3 11.6-11.5 13.6-13.7 2-2.2 5.5-5.8 7.8-8 2.2-2.2 4.9-4.8 5.8-5.8 3-3.1 7.3-4.9 13.2-5.4 11-1 11.8-.5 35.8 23.5 18.6 18.5 27.8 28.2 32.4 33.9.5.7 2 1.3 3.3 1.3 1.7 0 6.8 4.4 18.4 16 10.9 11 16.6 16 18.1 16 3.4 0 5.7 1.6 7 4.8.8 2 2.6 3.5 5.4 4.7 2.3 1 6.5 2.8 9.2 4.1 2.8 1.3 5.5 2.4 6.1 2.4.6 0 2.6.7 4.4 1.7 9.5 4.7 52.9 4.2 62.6-.8 2.1-1 5.2-1.9 6.9-1.9 1.7 0 4-.7 5.1-1.5 1.2-.8 4.5-2.4 7.4-3.5 3-1.2 5.9-2.8 6.6-3.7 1.3-1.8 7.7-5.4 17.4-9.7 1.3-.6 7.9-4.1 13.5-7.3 3.5-2 15.1-7.3 16.1-7.3.5 0 2.9-1.4 5.3-3 2.4-1.7 5.2-3 6.1-3 1 0 2.3-.7 3-1.4.6-.8 2.8-2 4.8-2.6 2-.6 5.1-1.8 6.7-2.5 6.9-3.2 19.2-8.3 21.5-9 1.4-.4 3-1.1 3.5-1.5.6-.4 2.4-1 4-1.4 1.7-.4 5.5-2 8.5-3.5 3-1.6 7.3-3.4 9.5-4.1 2.2-.7 4.5-1.6 5-2 .6-.4 2.8-1.1 5-1.4 2.2-.4 5.8-1.5 8-2.5 6.2-2.7 16.1-6 25.7-8.5 4.8-1.3 9.3-2.8 10-3.3.7-.6 3.4-1.3 6-1.5 2.5-.3 5.9-1.4 7.5-2.5 1.5-1 5.1-2.5 7.8-3.2 2.8-.6 6.2-1.8 7.7-2.6 1.5-.7 4.1-1.6 5.7-2 1.7-.3 4.7-2 6.8-3.6 2.1-1.7 5-3.3 6.6-3.6 1.5-.3 3.2-1.4 3.8-2.4.5-1.1 1.6-1.9 2.3-1.9.7 0 2.4-1.2 3.9-2.8 2.6-2.7 4.1-4.2 6.5-6.5 9.8-9.4 20.2-23 20.2-26.2 0-.7.7-1.8 1.5-2.5s1.5-1.9 1.5-2.7c0-.9 1.3-4.1 2.9-7.2 1.6-3.2 3.8-9.7 5-14.7 1.2-4.9 2.6-10.5 3.3-12.4.9-2.9 2-73.7 1.8-121.5 0-8 0-8.1 3.8-12.1 7.8-8-6.7-7.4 156-7.4h145.3l3.7 2.5z"/><path d="M1149.9 721c-3.6 2.1-16.6 4-27.4 4-7.2 0-12.9.5-15.2 1.4-5.5 2-12.6 3.4-23 4.6-5 .5-11.1 1.9-13.5 3-2.3 1.1-5.4 2-6.7 2-1.4 0-5 .8-8 1.9-3.1 1-8.3 2.6-11.6 3.5-3.3 1-6.8 2.2-7.8 2.7-2.3 1.3-14.6 5.6-20.9 7.4-2.5.7-7 2.4-10 3.8-2.9 1.3-6.4 2.8-7.7 3.2-1.2.4-3.9 1.8-5.8 3.1-2 1.3-4.7 2.4-6.1 2.4-1.4 0-3.5 1.1-4.8 2.5-1.3 1.4-3.4 2.5-4.7 2.5-1.3 0-3.6 1.1-5.1 2.5-1.5 1.4-3.9 2.8-5.4 3.1-1.5.4-3.8 1.5-5.1 2.5-1.2 1-3.8 2.1-5.7 2.5-1.9.3-3.8 1.2-4.2 1.8-.4.7-3.8 3-7.7 5.1-3.8 2.1-7.4 4.4-7.8 5.2-.4.7-3.1 2.6-5.9 4.1-2.8 1.5-6.1 3.3-7.4 4-1.3.7-2.9 2.2-3.4 3.3-.6 1-1.5 1.9-2 1.9-2.4 0-13.7 8-20.2 14.2-4 3.8-8.4 7.5-9.8 8.2-5.5 2.6-9.9 5.8-10.5 7.6-.3 1.1-1.5 2.2-2.5 2.5-1 .3-2.2 1.5-2.5 2.6-.4 1-1 1.9-1.4 1.9-1.3 0-8.6 7.4-10 10.3-.8 1.5-3.2 3.5-5.3 4.4-2.1.9-3.8 2-3.8 2.5 0 .4-3.8 4.7-8.5 9.5-12.1 12.4-12.8 13.3-15.9 18.3-1.6 2.5-4 5.6-5.3 7-5.5 5.7-13.3 14.5-13.3 15.2 0 1.1-6.8 11.6-8 12.3-.5.3-2.6 3.6-4.7 7.3-2 3.7-4.5 7.6-5.6 8.7-2.6 2.7-8.7 12.6-8.7 14.1 0 .7-.6 1.4-1.3 1.7-.7.3-1.9 2.5-2.6 4.8-.7 2.4-2.3 5.5-3.6 6.9-1.3 1.4-2.6 3.9-3 5.7-.3 1.7-1.3 3.7-2.1 4.4-.8.6-1.4 1.9-1.4 2.9 0 .9-1.1 3.4-2.5 5.4-1.4 2-2.5 4.5-2.5 5.5s-1.3 3.5-2.9 5.5c-1.6 2-3.2 5.3-3.6 7.3-.3 2.1-1.7 5.6-3 7.8-1.2 2.2-2.6 5.6-3 7.5-.3 1.9-1.4 5.1-2.2 7-.9 1.9-2.2 5.5-2.9 8-.8 2.5-3.4 10.5-5.8 17.8-2.5 7.4-4.8 15.4-5.2 17.9-.4 2.5-1.3 5.7-2 7.1-.7 1.4-1.8 5.7-2.4 9.6-2.5 16.5-3.2 20.3-4.5 24.1-.8 2.3-1.6 10.4-1.8 19-.4 11.8-1 16.4-2.6 21-1.9 5.5-2.1 8.1-2.1 35.3 0 22.7.3 29.9 1.4 32 1.7 3.5 3.6 18.6 3.6 29.5 0 4.7.5 9.8 1.1 11.4 1.5 3.7 2.7 9.2 3.9 18.3 1.8 13.1 2.2 15.4 3.5 17.5.7 1.1 1.6 3.8 1.9 6 .8 5.1 7.3 26.2 9 29.5.8 1.4 1.7 4.3 2 6.5.4 2.2 1.6 5.5 2.7 7.3 1 1.8 1.9 4.2 1.9 5.4 0 1.9 4.1 12 9 22.3 1 2.2 2.2 5.5 2.5 7.2.4 1.8 1.5 3.9 2.4 4.5 2.1 1.6 4.1 5.1 4.1 7.3 0 1 1.1 3 2.5 4.7 1.4 1.6 2.5 3.8 2.5 4.7 0 1 .8 2.9 1.8 4.2 1 1.3 3 4.9 4.5 7.9 3.2 6.8 8.8 15.8 11.4 18.5 1.1 1.1 2.5 3.6 3.3 5.5.7 1.9 2.1 4.4 3 5.5.9 1.1 2 2.8 2.3 3.7.4 1 1.1 1.8 1.6 1.8s3.1 3.6 5.7 8 5.1 8 5.6 8c.4 0 1.4 1.1 2 2.5.6 1.3 1.8 2.7 2.7 3 1.5.4 10.1 10.6 10.1 11.9 0 1.6 5.7 8.3 14.8 17.4 5.6 5.7 10.2 10.7 10.2 11.2 0 .4 1.3 1.3 2.9 1.8 1.6.6 3.7 2.2 4.7 3.7 2 2.9 21 22.5 21.8 22.5 1.3 0 10.6 6.9 14.8 11 9.8 9.3 10.3 9.7 18.3 14 2.2 1.2 4.7 2.8 5.5 3.6 2.4 2.3 9.2 6.6 12.8 8.1 1.7.7 3.2 1.7 3.2 2.2 0 .5 2.5 2.4 5.6 4.2 3 1.9 7 4.4 8.8 5.5 1.8 1.2 5.1 2.7 7.2 3.4 2.2.7 4.6 1.8 5.4 2.4.8.7 3.4 2 5.7 3 2.3 1 4.4 2.5 4.7 3.2.3.8 1.5 1.4 2.6 1.4 2.7 0 6.2 1.8 7.8 4.2.7 1 1.8 1.8 2.4 1.8.5 0 3.2 1.1 6 2.5 2.7 1.4 5.7 2.5 6.5 2.5.9 0 5 1.6 9.3 3.5 4.3 1.9 8.9 3.5 10.3 3.5 1.3 0 3 .6 3.6 1.4.7.8 3.5 1.9 6.4 2.6 2.9.6 7 2 9.2 3 2.2 1.1 6.5 2.5 9.5 3.3 3 .8 8.2 2.4 11.5 3.6 3.2 1.2 7.2 2.1 8.8 2.1 1.5 0 4.1.7 5.7 1.5 1.6.8 6.2 2 10.2 2.6 17.4 2.5 21.5 3.3 24.7 4.6 1.8.7 6.9 1.3 11.3 1.3 11 0 26.7 1.9 30.2 3.6 2.3 1.1 8.9 1.4 33.1 1.4 20.3 0 30.5-.4 31.2-1.1 1.6-1.6 19.3-3.9 30.1-3.9 5.7 0 10.3-.5 12-1.3 1.5-.8 6.8-1.9 11.7-2.6 5-.6 10.9-1.6 13.3-2.1 2.3-.6 5.3-1 6.5-1 1.3 0 3.2-.7 4.3-1.5 1-.8 3-1.5 4.4-1.5 1.4 0 5.3-1 8.5-2.1 3.3-1.2 9.6-3 13.9-4 4.4-1.1 8.5-2.4 9.1-2.9.6-.5 4.1-1.9 7.8-3 3.6-1.1 6.9-2.5 7.2-3 .3-.6 1.7-1 3-1s5.2-1.3 8.7-2.8c3.4-1.6 8.1-3.5 10.3-4.2 2.2-.7 4.2-1.6 4.5-2 .7-1 6.7-4 7.9-4 .6 0 2.7-1.1 4.7-2.5s4.6-2.5 5.8-2.5c1.2 0 2.9-.9 3.8-1.9.9-1.1 3.5-2.5 5.6-3.1 2.2-.5 4.2-1.6 4.5-2.4.3-.7 2.6-1.9 5.1-2.6 2.6-.7 5-1.8 5.4-2.4.7-1 2.1-1.9 11.5-6.8 2.1-1.1 4.2-2.8 4.7-3.8s2.7-2.5 4.9-3.4c4.1-1.6 7.1-3.7 10-6.9.8-.9 2-1.7 2.5-1.7 1.3 0 10.6-5.9 13.6-8.6 1.4-1.3 4.1-3.7 6-5.4 1.9-1.6 4.9-4.2 6.5-5.6 1.7-1.4 5.3-4 8-5.8 2.8-1.7 9.1-7.2 14-12.1 5-5 10.3-9.8 11.8-10.8 1.5-.9 2.7-2.6 2.7-3.6 0-1.1 1.4-3 3.1-4.3 1.7-1.3 5.1-4.3 7.5-6.8 5.3-5.4 4.9-5.1 10-9.7 2.2-2.1 5.3-6.1 6.9-8.8 1.5-2.8 4.2-6.4 5.9-8.2 1.7-1.8 4.2-4.6 5.6-6.3 1.4-1.7 3.3-3.8 4.3-4.8.9-.9 3.2-4.1 5-7.1 1.7-2.9 4.4-6.8 6-8.6 1.5-1.8 2.7-3.5 2.7-3.8 0-.9 7-12.1 8-12.7 1.2-.8 7.7-11.3 8.5-14 .4-1.1 1-2 1.5-2s1.6-2.2 2.5-4.9c.9-2.7 2.2-5.2 2.9-5.4.7-.3 1.6-1.9 1.9-3.5.3-1.6 1.7-4.2 3-5.8 1.3-1.6 2.7-4.5 3.1-6.5.3-2 1.7-4.5 3-5.6 1.3-1.2 2.7-3.6 3.1-5.5.4-1.8 1.3-4 1.9-4.8.7-.8 1.8-3.5 2.5-6s2.1-6 3.2-7.8c1-1.8 2.4-5.4 3-8 .7-2.6 2-6.3 3-8.2.9-2 2.1-5.4 2.4-7.5.4-2.2 1.3-4.7 2-5.5.7-.8 2.2-5.4 3.4-10.1 1.1-4.7 2.7-9.9 3.6-11.5.8-1.6 1.5-4.5 1.5-6.4 0-1.9.9-5.2 2-7.2 1-2 2.4-7.4 3-12 1.4-11.6 3.5-21.9 4.8-24.5.7-1.3 1.2-6.6 1.2-12.8 0-12.1 1.5-23.5 3.6-28.2 2.2-4.8 1.5-55.8-.9-65.8-1-3.9-2-13.4-2.3-21.5-.3-8-1.1-16.3-1.8-18.5-1.7-5.1-3.3-12.8-4.6-23.2-.6-4.6-2-10.2-3-12.5-1.1-2.4-2-5.8-2-7.6 0-1.8-.6-4.5-1.4-6-.7-1.5-2.4-6.8-3.6-11.7-1.3-5-2.9-9.7-3.7-10.6-.7-.8-1.3-2.1-1.3-2.7 0-1.4-2.8-10.2-3.9-12.2-.5-.9-1.2-3.1-1.6-5-.4-1.9-1.8-5.4-3.1-7.6-1.3-2.3-2.8-6.3-3.4-9-.6-2.7-1.7-5.5-2.4-6.4-.8-.8-1.7-2.9-2-4.6-.4-1.8-1.6-4-2.6-4.9-1-.9-2.2-3-2.5-4.6-.4-1.5-1.9-4.4-3.5-6.4s-3.1-4.9-3.5-6.5c-.3-1.6-1.2-3.4-2-4-.8-.6-2.1-3.3-3-6-.9-2.6-2.3-5.1-3.1-5.4-.7-.3-1.4-1-1.4-1.6 0-1.4-5.9-11.2-7.9-13-.9-.8-2.7-3.7-4.1-6.4-4.2-8.4-5-9.5-7.1-10.6-1-.6-1.9-1.5-1.9-2 0-1.3-5.9-11-8.2-13.5-10-10.8-12.4-13.7-15.6-18.5-1.9-3-5.7-7.6-8.4-10.1-2.6-2.6-4.8-5-4.8-5.3 0-1.1-7.6-8.1-10.5-9.6-1.7-.9-3.5-3-4.3-5.2-.8-2.1-2.2-4-3.1-4.3-.9-.3-3.2-2.1-5.1-4-1.9-2-4.1-4.1-4.8-4.8-.7-.6-1.8-1.8-2.5-2.5-5.3-5.8-13-12.3-16.5-13.8-1.5-.7-5.4-3.7-8.7-6.8-3.3-3.1-6.7-6.3-7.5-7.1-2.2-2-8.5-6.2-12.3-8.1-1.7-1-3.7-2.3-4.2-3.1-1.2-1.6-4-3.2-10.7-6.4-2.7-1.2-4.8-2.5-4.8-3 0-1.4-16.2-11.5-21.9-13.6-1.9-.7-4.2-1.9-5-2.7-.9-.7-2.8-1.6-4.3-2-1.5-.3-3.9-1.7-5.4-3.1-1.5-1.4-3.7-2.5-4.9-2.5-1.2 0-3.9-1.3-6-3-2.1-1.6-5.5-3.5-7.6-4-2.1-.6-4.1-1.4-4.3-1.9-.3-.5-1.8-1.2-3.3-1.6-1.4-.3-5.4-1.9-8.7-3.4-3.4-1.6-7.7-3.2-9.6-3.6-1.9-.3-5.3-1.5-7.5-2.5-2.2-.9-5.6-2.1-7.5-2.5-1.9-.4-4.2-1.3-5-2-.8-.6-5.5-2.2-10.5-3.5-4.9-1.3-10.4-3-12.2-3.7-1.8-.7-4.5-1.3-6-1.3-1.6 0-4.4-.9-6.4-1.9-1.9-1.1-7.6-2.4-12.5-3-10-1.2-20.5-3.3-24.7-5-1.6-.6-7.2-1.1-12.5-1.1-10.4 0-30.2-2.3-34.6-4-3.5-1.3-54.5-1.3-56.7 0zm86.6 82.7c3 1.3 7.9 2.3 12.1 2.6 4.4.2 8.1 1.1 9.5 2.1 1.3.9 3.7 1.6 5.3 1.6 5.4 0 15 2.2 20.4 4.6 2.9 1.3 6.9 2.4 9 2.4 2.1 0 4.7.6 5.8 1.4 1.1.8 4.9 2.2 8.5 3.1 3.5.8 7.3 2 8.4 2.5 1.1.4 3.4 1.3 5 1.8 1.7.5 4.8 2.1 6.9 3.6 2.1 1.4 4.3 2.6 4.8 2.6 1.2 0 13.8 5.8 20.3 9.3 1.7.9 6.4 3.2 10.5 5.2 8.5 4 13.2 6.8 18.1 10.6 1.9 1.5 5.8 3.9 8.7 5.4 2.8 1.5 5.2 3.1 5.2 3.5 0 .4 1.4 1.3 3.1 1.9 3 1 4.4 2.1 15.2 11.4 2.7 2.3 5.7 4.4 6.6 4.7 1.5.5 9.8 7.7 16.2 14.2 1.5 1.6 3 2.8 3.3 2.8.4 0 3.1 2.4 6 5.2 3 2.9 6.8 6.3 8.5 7.6 1.7 1.3 3.4 3.4 3.7 4.8.3 1.3 1.1 2.4 1.6 2.4s2.6 1.9 4.6 4.2c2 2.4 6.5 7.2 9.8 10.8 3.4 3.6 6.4 7.4 6.8 8.5.3 1.1 2.4 4 4.6 6.4 2.2 2.4 4 4.8 4 5.3s1.3 2.1 2.9 3.6c3 2.8 3.7 3.8 10.5 15.8 2.2 3.8 5.2 8.3 6.7 10.1 1.5 1.8 4.1 6 5.9 9.5 1.7 3.5 3.5 7 4 7.8.5.8 2.5 5.1 4.5 9.5s6.3 13.4 9.5 20 6.8 15.4 8 19.5c1.2 4.1 3 9.3 4.1 11.6 1 2.3 1.9 5.6 1.9 7.4 0 1.9.9 5.2 1.9 7.4 1.9 4 5.1 17.1 5.1 21.1 0 1.1.7 3.3 1.6 5 .9 1.7 1.9 6.8 2.3 11.5.4 6.1 1.2 9.4 2.6 11.5 1.9 2.9 2 4.7 2 56v53l-2.2 3.2c-1.8 2.4-2.3 4.5-2.3 9.5-.1 3.4-.8 8.1-1.6 10.3-.9 2.2-2 6-2.4 8.5-.4 2.5-1.3 7.4-2 11-.6 3.6-1.8 7.2-2.6 8.1-.9 1-1.9 4.2-2.3 7.2-.4 3.1-1.2 6.2-1.8 6.9-.6.7-1.9 4.2-2.8 7.8-2.5 9.9-5.4 17.8-8.1 21.7-1.3 2-2.4 4.1-2.4 4.7 0 .6-1.3 3.8-3 7.1-1.6 3.3-3 6.5-3 7.1 0 .6-.9 2.3-2 3.7-1.2 1.4-2.6 4.1-3.2 5.9-.6 1.8-1.7 4-2.4 4.8-.7.8-2 3.5-3 6s-2.9 6.3-4.3 8.4c-1.4 2.1-3.2 5.1-4 6.5-.7 1.4-2.3 3.7-3.5 5.1-3.4 3.8-7.6 10.5-7.6 11.8 0 .7-1.5 2.8-3.2 4.7-1.8 1.9-4.4 4.8-5.8 6.5-1.4 1.7-3.3 3.8-4.2 4.8-1 .9-1.8 2.4-1.8 3.4s-2.9 4.8-6.4 8.5c-3.6 3.8-8.7 9.3-11.5 12.3-12.7 13.9-40.8 40.1-44 41-2 .6-4.3 2.4-7.9 6.2-1.5 1.6-3.2 2.8-3.9 2.8-.7 0-1.7.9-2.3 2.1-.6 1.1-3.1 2.9-5.5 3.9-2.3 1-4.6 2.3-4.9 2.9-.4.5-1.9 1.6-3.4 2.4-8.9 4.6-11.4 6.1-11.9 7.3-.3.8-4.6 3.5-9.7 6.1-24.9 12.7-34.2 17.2-35.7 17.3-.9 0-3.4 1.2-5.5 2.6-4.1 2.8-10.8 5.4-21.8 8.4-3.8 1-7.3 2.3-7.9 2.9-.6.6-2.7 1.1-4.7 1.1-1.9 0-5.5 1-8 2.1-4.5 2-8.2 3-19.4 5-3.2.5-7.1 1.6-8.7 2.4-1.6.9-5.6 1.5-9.3 1.5-4.8 0-7.7.6-10.7 2.2-3.7 1.9-6.5 2.2-24.8 3-20.6.8-74 .3-81.6-.9-2.2-.3-5.7-1.4-7.7-2.4-2.6-1.3-5.8-1.9-10.5-1.9-4.6 0-7.6-.5-9.1-1.6-1.3-.9-4.8-2-8-2.4-13.3-2-17.1-3-20.8-4.9-2.1-1.2-5.6-2.1-7.7-2.1-2.1 0-4.8-.6-6-1.4-1.2-.8-4.7-2.1-7.7-3-11.1-3-16.3-5.3-47.5-20.8-18.4-9.1-21.6-10.9-25.5-14.2-1.8-1.5-5.8-4.1-8.9-5.7-8.5-4.5-12.4-6.9-14.6-9-1.1-1-4-3.5-6.5-5.5s-4.9-4.2-5.3-5c-.4-.8-1.7-1.4-2.8-1.4-1.1 0-4.8-2.8-8.3-6.3-3.5-3.4-8.2-7.6-10.5-9.2-2.2-1.7-4.3-3.7-4.6-4.5-.3-.8-2.3-2.5-4.5-3.8-2.3-1.3-4.6-3.5-5.3-5-.7-1.5-4.7-6.3-8.9-10.7-4.3-4.4-10.5-10.8-13.8-14.2-3.3-3.4-6-6.7-6-7.3 0-1.3-7.5-11.1-11.4-15-1.4-1.4-3.2-4.2-4.1-6.3-.8-2-1.9-3.7-2.4-3.7-.4 0-2.6-3.4-4.7-7.6-2.1-4.1-4.4-7.9-5.1-8.3-1.5-.8-2.9-3.2-9.3-16.1-2.4-4.7-5.1-9.7-6.2-11.2-1-1.4-1.8-3.2-1.8-3.9 0-1.2-4.5-11.1-8.2-17.9-4.2-7.8-9.8-23.7-9.8-27.8 0-1.1-.6-2.5-1.4-3.1-.7-.6-1.7-3.5-2-6.4-.4-2.8-1.4-6.2-2.2-7.4-.8-1.3-2.4-7.1-3.5-13-1.2-6-2.7-12.3-3.5-14.2-.8-1.8-1.4-6.3-1.4-10 0-5.1-.5-7.4-2.3-10.1l-2.2-3.5v-106l2.3-4c1.6-3 2.2-5.6 2.2-10.5 0-4 .7-8.4 1.9-11.5 1.1-2.7 2.5-8.4 3.2-12.5.6-4.1 2-9.5 3.1-12 1-2.5 2.2-6.5 2.5-9 .3-2.5 1.1-5.6 1.9-7 .7-1.4 2.9-7.7 4.9-14 2-6.3 4.2-12.2 5-13 .7-.8 3.2-5.8 5.5-11 5.1-11.8 5.8-13.1 7-15 .5-.8 1.6-3.1 2.5-5 2.9-6.6 9.6-18.5 11.5-20.5 1.1-1.2 2-2.9 2-3.8 0-.9 1.2-3.1 2.8-4.9 4-4.8 7.2-9.6 7.2-10.7 0-.9 4.8-7.1 9.7-12.6 2.5-2.7 6.3-8.4 6.3-9.3 0-.4 2.9-3.7 6.5-7.2s6.5-6.8 6.5-7.2c0-.4 3.5-4.3 7.8-8.7 4.2-4.4 8.7-9.3 10-11 1.3-1.7 3.4-3.4 4.7-3.7 1.4-.3 2.7-1.3 3-2.2.3-1 2.2-3.1 4.2-4.7 2-1.7 6.5-5.7 10-9s7.4-6.5 8.6-7c1.2-.6 3-1.7 3.9-2.5 8.3-7.2 16-13 17.2-13 .7 0 2.1-.9 3.1-2s2.2-2 2.8-2c.5 0 2.7-1.6 4.8-3.5 2.2-1.9 4.7-3.5 5.8-3.5 1 0 2.4-.7 3.1-1.5.7-.8 2.4-2.1 3.9-2.8 6.3-3.2 20.7-11 21.6-11.8.6-.4 3.3-1.7 6.2-2.8 2.8-1.1 9.9-4.3 15.6-7.1 5.8-2.7 10.8-5 11.2-5 .4 0 2.1-.6 3.8-1.4 1.8-.8 5.9-2.2 9.2-3.1 3.2-.9 6.8-2.3 7.9-3.1 1.1-.8 3.8-1.4 5.9-1.4 2.1 0 5.6-.9 7.8-2.1 2.3-1.1 6.6-2.5 9.7-3 3.2-.6 8-1.4 10.7-1.9 2.8-.4 6.8-1.5 9-2.4 2.2-.8 6.6-1.5 9.8-1.6 3.3 0 6.7-.6 8-1.5 4.4-2.8 13.7-3.3 60.7-3.2 46.4.2 47.6.3 52.5 2.4z"/></g></svg>