<?xml version="1.0" standalone="no"?>
<!DOCTYPE svg PUBLIC "-//W3C//DTD SVG 20010904//EN"
 "http://www.w3.org/TR/2001/REC-SVG-20010904/DTD/svg10.dtd">
<svg version="1.0" xmlns="http://www.w3.org/2000/svg"
 width="2363.000000pt" height="2367.000000pt" viewBox="0 0 2363.000000 2367.000000"
 preserveAspectRatio="xMidYMid meet">

<g transform="translate(0.000000,2367.000000) scale(0.100000,-0.100000)"
fill="#ff5700" stroke="none">
<path d="M10338 23578 c-14 -21 -24 -23 -99 -25 -126 -2 -274 -48 -318 -98
-11 -14 -33 -27 -48 -31 -15 -4 -36 -15 -46 -25 -10 -11 -22 -19 -27 -19 -13
0 -169 -157 -197 -198 -13 -18 -23 -40 -23 -48 0 -8 -15 -29 -34 -47 -19 -18
-39 -50 -46 -72 -7 -22 -21 -53 -31 -70 -11 -16 -19 -46 -19 -65 0 -19 -12
-66 -25 -105 l-25 -70 0 -631 0 -630 -25 -50 c-13 -27 -47 -72 -75 -100 -43
-43 -65 -57 -138 -82 -48 -17 -118 -38 -157 -48 -38 -9 -82 -23 -97 -31 -15
-7 -37 -13 -50 -13 -24 0 -103 -28 -153 -54 -16 -9 -39 -16 -50 -16 -11 0 -30
-7 -42 -15 -12 -8 -43 -18 -70 -21 -26 -4 -56 -13 -65 -22 -10 -8 -75 -34
-145 -57 -70 -24 -157 -57 -193 -74 -36 -17 -70 -31 -77 -31 -7 0 -29 -11 -49
-25 -20 -14 -44 -25 -53 -25 -9 0 -25 -7 -35 -15 -11 -8 -27 -15 -35 -15 -8 0
-33 -9 -55 -19 -23 -10 -77 -35 -121 -56 -71 -32 -148 -71 -265 -130 -51 -26
-69 -36 -125 -62 -27 -13 -57 -28 -65 -33 -8 -4 -62 -32 -119 -61 -57 -30
-116 -67 -132 -83 -26 -26 -34 -29 -107 -30 -71 -1 -81 2 -110 26 -18 15 -42
30 -54 34 -22 7 -31 13 -77 54 -90 81 -117 100 -142 100 -34 0 -59 24 -59 56
0 47 -7 56 -155 202 -38 38 -74 74 -80 80 -5 6 -75 76 -155 155 -80 80 -151
151 -158 160 -6 9 -19 14 -28 10 -9 -3 -29 8 -52 31 -73 73 -88 86 -97 86 -5
0 -18 11 -30 24 -19 23 -121 66 -210 89 -22 5 -55 16 -73 24 -48 21 -325 30
-389 13 -140 -37 -304 -99 -333 -126 -51 -47 -113 -94 -125 -94 -7 0 -92 -78
-188 -174 -96 -95 -182 -176 -191 -179 -9 -4 -20 -15 -23 -24 -4 -10 -48 -57
-98 -106 -49 -48 -94 -92 -100 -98 -15 -15 -248 -247 -263 -261 -7 -7 -56 -57
-108 -110 -52 -54 -99 -98 -104 -98 -6 0 -10 -5 -10 -12 0 -13 -177 -188 -190
-188 -5 0 -14 -9 -20 -20 -6 -10 -63 -71 -128 -135 -143 -141 -116 -113 -219
-221 -49 -51 -98 -97 -110 -103 -13 -7 -23 -16 -23 -20 0 -12 -228 -241 -240
-241 -5 0 -14 -8 -19 -17 -5 -10 -28 -38 -51 -63 -38 -41 -120 -153 -120 -164
0 -3 -11 -16 -25 -30 -14 -14 -25 -33 -25 -43 0 -10 -9 -35 -19 -55 -11 -20
-27 -62 -35 -95 -8 -32 -24 -87 -36 -122 -14 -44 -20 -90 -20 -150 0 -79 22
-240 35 -262 4 -5 12 -34 20 -64 8 -30 28 -79 45 -108 16 -30 30 -61 30 -70 0
-9 7 -25 15 -34 66 -78 108 -123 130 -141 9 -8 13 -21 11 -30 -4 -12 15 -36
60 -77 37 -33 94 -89 128 -124 33 -35 94 -95 134 -135 41 -39 88 -86 105 -105
18 -18 51 -52 75 -75 24 -22 117 -113 208 -201 l164 -160 0 -135 c0 -74 -4
-141 -9 -149 -5 -8 -26 -17 -47 -20 -33 -5 -39 -11 -45 -38 -5 -28 -70 -167
-147 -318 -14 -27 -34 -56 -44 -63 -10 -7 -18 -19 -18 -26 0 -14 -97 -235
-135 -307 -14 -26 -25 -55 -25 -66 0 -10 -6 -27 -13 -38 -7 -11 -19 -36 -27
-55 -7 -19 -18 -42 -25 -50 -6 -8 -19 -40 -29 -70 -15 -49 -54 -137 -78 -180
-12 -21 -14 -28 -33 -100 -9 -36 -22 -74 -28 -85 -5 -11 -25 -66 -43 -122 -19
-56 -47 -132 -64 -169 -16 -37 -30 -81 -30 -98 0 -17 -6 -43 -14 -58 -8 -14
-22 -59 -31 -100 -10 -40 -24 -91 -32 -113 -9 -22 -22 -58 -30 -80 -17 -46
-122 -153 -176 -178 -32 -15 -97 -17 -664 -17 l-630 0 -61 -25 c-34 -14 -81
-25 -104 -25 -24 0 -56 -8 -73 -19 -17 -10 -48 -24 -70 -31 -68 -22 -109 -46
-191 -115 -109 -92 -169 -159 -212 -235 -20 -36 -46 -73 -58 -82 -12 -10 -26
-34 -32 -55 -6 -21 -19 -63 -30 -93 -10 -30 -24 -90 -31 -133 -7 -43 -19 -90
-27 -105 -21 -40 -21 -2939 0 -2980 7 -15 19 -61 25 -102 7 -41 17 -93 23
-115 17 -64 61 -167 74 -172 6 -2 20 -23 30 -46 31 -69 49 -94 143 -193 50
-52 123 -107 160 -119 12 -3 28 -17 37 -30 15 -22 88 -55 124 -55 9 0 25 -8
34 -19 10 -11 37 -21 72 -25 30 -3 78 -15 107 -26 50 -19 78 -20 682 -20 l630
0 50 -24 c77 -37 150 -125 184 -222 15 -43 33 -106 40 -139 7 -33 21 -79 32
-103 10 -23 19 -54 19 -68 0 -15 9 -43 20 -63 27 -50 70 -175 84 -242 6 -32
18 -65 27 -75 8 -11 25 -50 37 -89 37 -123 62 -188 76 -204 8 -9 21 -43 30
-75 8 -33 19 -62 25 -65 6 -4 17 -25 26 -46 18 -46 34 -82 62 -145 12 -25 37
-83 58 -130 20 -47 45 -101 55 -120 9 -19 62 -122 116 -227 55 -106 107 -210
118 -230 10 -21 24 -45 31 -53 19 -22 65 -163 65 -199 0 -72 -28 -142 -79
-194 -95 -99 -141 -154 -141 -169 0 -20 -21 -38 -44 -38 -10 0 -26 -7 -35 -15
-22 -20 -95 -92 -168 -167 -34 -35 -82 -82 -105 -105 -62 -60 -72 -74 -78
-102 -3 -15 -13 -27 -25 -30 -19 -3 -72 -46 -156 -125 -19 -18 -48 -55 -64
-82 -15 -26 -42 -63 -60 -82 -62 -67 -68 -75 -77 -116 -5 -22 -15 -48 -22 -56
-7 -8 -21 -42 -31 -75 -9 -33 -24 -76 -31 -95 -29 -78 -37 -259 -17 -385 13
-80 56 -211 78 -235 7 -8 18 -34 23 -56 9 -41 20 -57 79 -117 18 -17 37 -43
43 -57 20 -46 35 -67 77 -106 51 -47 114 -108 130 -126 7 -7 17 -17 23 -23 5
-5 53 -54 105 -107 53 -54 100 -98 105 -98 5 0 11 -8 15 -18 3 -11 17 -24 30
-30 14 -6 25 -16 25 -22 0 -10 24 -35 121 -128 19 -18 41 -40 50 -50 10 -9 33
-32 53 -50 20 -18 36 -36 36 -40 0 -4 32 -36 70 -72 39 -36 98 -94 133 -129
34 -35 70 -71 79 -80 31 -29 196 -194 333 -333 74 -75 135 -142 135 -148 0 -5
5 -10 12 -10 14 0 33 -18 155 -143 7 -6 17 -16 23 -22 6 -5 41 -41 79 -80 39
-38 76 -76 83 -82 7 -7 19 -18 25 -25 7 -7 28 -29 47 -48 19 -19 55 -56 79
-83 24 -26 46 -47 50 -47 3 0 19 -12 34 -27 16 -16 55 -43 85 -61 31 -19 59
-40 62 -47 3 -8 24 -19 48 -26 24 -6 63 -20 87 -31 24 -11 76 -28 115 -38 39
-10 84 -23 99 -29 60 -23 261 -11 377 24 25 7 65 16 88 18 24 3 54 14 65 25
26 24 81 52 100 52 8 0 35 19 61 43 44 39 94 73 141 97 11 5 36 28 55 50 19
22 75 80 123 128 48 48 119 119 157 157 38 39 87 88 109 110 22 22 57 57 78
77 74 73 121 126 135 154 7 16 21 29 30 29 9 0 25 8 35 17 105 101 139 129
157 132 11 2 46 10 76 16 67 15 119 2 225 -55 39 -20 86 -45 105 -55 82 -44
591 -291 660 -320 41 -18 89 -38 105 -46 17 -7 42 -15 57 -19 15 -4 32 -13 39
-21 6 -8 18 -14 27 -14 8 0 44 -15 81 -34 36 -18 77 -37 91 -41 14 -4 39 -13
55 -20 48 -19 129 -45 143 -45 7 0 30 -11 50 -25 22 -15 51 -25 72 -25 20 0
45 -7 56 -15 10 -8 30 -15 44 -15 14 0 40 -9 58 -20 18 -11 41 -20 50 -20 10
0 27 -7 38 -15 10 -8 30 -15 44 -15 14 0 42 -9 63 -20 20 -11 47 -20 58 -20
24 0 134 -31 221 -62 73 -26 155 -99 191 -169 l27 -54 0 -633 c0 -621 0 -634
21 -679 11 -25 23 -71 26 -102 3 -31 14 -72 25 -91 11 -19 27 -56 35 -82 8
-27 22 -52 34 -59 11 -6 26 -23 33 -37 20 -46 58 -102 67 -102 5 0 14 -11 19
-25 5 -14 13 -25 17 -25 5 0 31 -22 59 -48 64 -59 103 -87 132 -96 13 -4 38
-20 55 -36 41 -35 227 -100 288 -100 33 0 51 -6 64 -20 18 -20 31 -20 1507
-20 1310 0 1493 2 1518 15 16 8 58 18 92 21 105 10 280 70 297 102 5 10 28 24
50 32 23 7 62 32 89 56 26 23 59 53 75 66 15 12 33 29 40 36 6 8 21 24 33 35
11 12 30 42 43 67 12 25 36 59 52 75 27 29 51 84 85 200 8 28 26 84 40 125
l24 76 0 629 0 628 26 46 c63 110 162 173 339 216 39 9 91 25 117 36 26 10 57
19 71 19 13 0 60 16 104 35 45 19 88 35 97 35 8 0 35 9 58 19 58 26 141 55
213 77 33 10 71 24 85 31 14 7 32 13 40 13 8 0 46 16 84 35 39 19 78 35 89 35
11 0 32 11 49 25 16 14 36 25 45 25 15 0 39 10 150 61 34 16 64 29 67 29 3 0
43 18 90 40 47 22 88 40 92 40 4 0 15 6 23 14 16 15 234 126 247 126 3 0 34
18 67 40 33 22 71 43 86 47 14 3 60 23 101 44 74 37 196 69 265 69 30 0 43 -8
87 -55 41 -44 57 -55 82 -55 41 0 56 -16 56 -57 0 -35 26 -58 54 -47 21 8 56
-31 56 -64 0 -18 12 -41 35 -65 19 -20 35 -41 35 -45 0 -13 68 -42 84 -36 21
8 56 -31 56 -62 0 -39 118 -174 152 -174 9 0 23 -8 30 -17 7 -10 22 -23 33
-29 11 -6 21 -22 23 -36 4 -36 147 -178 179 -178 6 0 76 -59 119 -100 28 -27
253 -107 344 -122 100 -17 269 -21 319 -7 112 30 225 71 248 89 14 11 38 20
54 20 20 0 44 16 91 60 34 33 70 60 78 60 9 0 38 19 64 42 45 40 69 64 168
165 21 21 43 44 50 50 7 7 19 18 26 25 70 70 99 99 109 110 7 7 18 18 25 25 7
7 19 18 25 25 26 27 58 60 106 106 21 20 80 80 132 132 52 52 99 100 105 105
5 6 51 52 100 102 50 51 100 97 110 103 11 6 20 17 20 24 0 7 11 18 24 24 13
6 27 20 31 31 3 11 15 23 26 26 10 4 19 10 19 15 0 11 499 510 511 510 5 0 15
11 21 25 6 13 19 27 29 30 10 3 21 15 24 25 3 10 14 21 23 24 9 3 33 26 52 50
19 25 45 49 58 55 12 6 22 18 22 26 0 8 11 21 25 27 13 6 27 18 30 27 3 9 22
30 42 46 64 53 147 147 199 225 20 30 45 62 54 70 10 8 24 35 30 60 7 25 19
53 27 62 9 10 20 41 24 70 5 28 16 68 26 87 24 51 26 373 2 441 -9 25 -24 72
-34 105 -11 33 -25 69 -32 80 -7 11 -13 30 -13 42 0 13 -13 37 -30 55 -16 17
-30 36 -30 43 0 6 -11 18 -25 25 -14 7 -35 34 -47 58 -13 28 -76 100 -162 188
-78 78 -147 148 -154 155 -103 106 -321 318 -341 331 -15 10 -35 15 -48 12
-17 -5 -32 5 -67 43 -26 27 -46 57 -45 68 3 45 -2 58 -33 87 -33 30 -39 51
-57 193 -9 67 -8 71 15 96 13 14 24 34 24 46 0 11 14 37 30 58 17 21 30 43 30
50 0 7 7 18 15 25 8 7 22 36 31 65 8 30 21 59 29 65 8 6 19 28 26 48 6 20 17
44 24 52 6 8 26 42 44 75 19 33 39 67 46 75 6 8 18 31 25 50 7 19 29 69 47
110 87 188 103 227 103 244 0 7 11 30 25 50 14 20 25 42 25 48 0 6 15 43 34
82 32 68 47 110 82 221 9 28 27 75 39 105 13 30 26 71 30 90 4 19 13 42 19 50
7 8 18 37 24 64 7 27 24 72 37 101 14 28 25 65 25 81 0 16 9 43 20 59 11 17
20 40 20 52 0 27 33 150 58 215 23 61 98 148 159 184 l48 29 650 5 c589 5 653
7 687 22 20 10 63 21 95 24 32 4 69 14 83 24 14 9 45 22 70 29 42 12 102 47
174 103 45 35 196 186 196 196 0 5 8 17 19 26 10 9 21 30 25 47 3 16 19 42 35
57 16 15 34 43 40 62 5 19 19 60 29 90 11 31 23 89 27 130 4 45 15 88 26 106
18 30 19 76 19 1492 l0 1461 -22 42 c-13 25 -24 71 -28 113 -9 89 -55 232 -84
260 -12 11 -37 48 -55 81 -36 65 -40 70 -128 158 -60 61 -126 110 -162 122
-12 3 -28 17 -37 30 -14 22 -60 41 -195 84 -19 6 -54 11 -77 11 -24 0 -60 10
-84 23 -43 22 -43 22 -678 27 l-635 5 -40 24 c-47 28 -105 81 -105 95 0 5 -8
19 -18 30 -32 38 -92 216 -92 277 0 13 -9 38 -20 54 -11 17 -20 43 -20 58 0
15 -14 57 -30 93 -17 35 -33 79 -37 97 -3 17 -14 48 -25 67 -10 19 -18 49 -18
66 0 17 -9 43 -20 57 -12 14 -29 58 -40 98 -10 39 -23 76 -29 82 -6 6 -11 21
-11 32 0 12 -11 44 -25 71 -14 27 -33 71 -42 99 -10 27 -28 65 -40 84 -13 19
-23 42 -23 52 0 10 -4 21 -10 24 -5 3 -14 25 -21 48 -6 23 -17 49 -24 57 -7 8
-18 33 -25 54 -11 33 -108 232 -140 286 -5 8 -43 85 -85 170 -41 85 -96 193
-120 239 -54 102 -72 178 -56 231 6 21 11 51 11 68 0 32 1 33 160 198 25 26
40 50 40 66 0 26 20 41 43 33 12 -5 137 103 137 119 0 4 18 24 40 44 60 56 64
60 76 74 7 7 30 29 52 48 23 19 41 39 42 43 0 9 169 177 177 177 13 0 81 80
112 130 19 30 52 78 75 105 23 28 48 68 55 90 7 22 19 47 26 55 7 8 21 40 29
70 9 30 22 69 28 85 21 60 30 162 25 285 -5 126 -22 201 -68 315 -12 28 -25
66 -31 85 -5 19 -17 42 -26 50 -21 19 -53 65 -75 105 -9 17 -37 52 -62 79 -26
28 -51 58 -56 68 -5 10 -14 18 -20 18 -13 0 -199 187 -199 200 0 6 -5 10 -11
10 -5 0 -111 102 -235 228 -123 125 -228 230 -232 234 -76 70 -252 249 -252
257 0 6 -4 11 -10 11 -13 0 -200 186 -200 199 0 6 -9 15 -21 21 -11 7 -71 63
-132 125 -62 63 -117 119 -124 125 -6 7 -54 55 -106 107 -52 52 -99 99 -104
104 -144 147 -379 369 -392 369 -20 0 -106 68 -118 93 -6 13 -51 33 -134 62
-69 23 -135 48 -148 54 -15 8 -78 13 -179 14 -173 2 -196 1 -262 -18 -25 -8
-71 -21 -103 -30 -32 -9 -74 -27 -94 -41 -20 -13 -45 -24 -55 -24 -21 0 -163
-113 -179 -142 -5 -10 -21 -18 -34 -18 -15 0 -37 -14 -57 -35 -77 -82 -113
-127 -118 -148 -4 -14 -15 -23 -30 -25 -14 -2 -34 -14 -46 -25 -12 -12 -28
-27 -36 -34 -7 -7 -19 -18 -25 -25 -7 -7 -18 -19 -25 -27 -18 -18 -137 -137
-187 -186 -23 -22 -94 -93 -159 -158 -163 -164 -179 -177 -208 -177 -14 0 -50
-7 -79 -15 -51 -15 -55 -15 -120 10 -38 14 -84 35 -103 47 -20 12 -133 70
-252 129 -119 59 -222 114 -229 123 -8 9 -20 16 -27 16 -14 0 -279 115 -346
151 -10 5 -24 9 -31 9 -8 0 -29 10 -48 23 -19 12 -54 28 -79 36 -25 7 -61 22
-80 33 -36 21 -94 43 -210 79 -36 11 -74 24 -85 29 -11 5 -40 16 -65 24 -25 8
-61 21 -80 29 -19 8 -62 23 -95 32 -33 10 -74 27 -91 37 -17 10 -43 18 -57 18
-15 0 -41 9 -59 20 -18 11 -43 20 -55 20 -53 0 -264 69 -297 97 -63 54 -117
118 -126 151 -6 23 -10 267 -10 663 0 611 0 627 -20 652 -11 14 -20 38 -20 54
0 36 -34 168 -47 186 -6 6 -13 27 -17 46 -3 18 -22 51 -41 72 -19 22 -35 48
-35 59 0 11 -5 20 -10 20 -6 0 -16 12 -23 28 -22 50 -162 179 -242 222 -41 23
-75 46 -75 51 0 6 -17 17 -37 25 -21 9 -51 22 -68 29 -56 23 -140 38 -207 37
-54 -2 -75 3 -114 23 l-47 25 -1432 0 -1433 0 -14 -22z m2960 -813 c20 -14 42
-25 47 -25 6 0 22 -15 36 -32 l24 -33 6 -635 c5 -584 10 -691 33 -728 3 -6 11
-36 17 -66 5 -31 26 -87 44 -126 19 -38 35 -78 35 -89 0 -11 4 -22 9 -26 6 -3
24 -30 41 -60 41 -72 104 -148 181 -221 6 -6 29 -30 51 -52 22 -23 48 -44 59
-47 10 -4 19 -10 19 -15 0 -5 16 -14 35 -20 20 -7 46 -22 58 -34 12 -13 38
-29 57 -35 19 -7 44 -17 55 -21 44 -18 120 -40 138 -40 10 0 32 -11 49 -25 21
-18 41 -25 73 -25 26 0 47 -6 55 -15 7 -8 20 -15 29 -15 10 0 40 -7 67 -15 27
-8 87 -27 134 -41 47 -15 97 -33 111 -40 15 -8 53 -20 85 -28 57 -14 196 -68
218 -85 6 -4 40 -18 76 -30 83 -29 272 -110 285 -122 5 -5 19 -9 31 -9 18 0
109 -42 204 -95 28 -16 73 -39 110 -55 85 -39 190 -94 190 -100 0 -4 19 -12
43 -19 23 -7 49 -19 57 -25 8 -7 29 -18 47 -25 18 -7 39 -23 47 -35 9 -14 34
-28 63 -36 26 -7 60 -22 75 -32 14 -10 39 -18 55 -18 15 0 42 -9 59 -19 76
-47 524 -54 622 -10 25 10 50 19 56 19 7 0 34 11 62 24 27 13 71 32 99 42 27
10 73 38 102 61 29 24 57 43 61 43 5 0 47 39 93 86 46 47 103 105 127 127 101
98 460 456 493 493 52 57 139 137 179 165 30 21 47 24 116 24 73 0 85 -3 125
-30 24 -16 46 -34 47 -38 7 -15 299 -303 383 -377 96 -85 249 -240 249 -253 0
-4 168 -176 373 -382 204 -205 377 -378 382 -384 6 -6 64 -64 130 -130 66 -66
126 -125 133 -133 142 -144 283 -277 299 -282 39 -12 53 -40 59 -118 4 -41 3
-97 0 -123 -7 -47 -15 -55 -444 -484 -284 -284 -447 -454 -466 -486 -16 -28
-41 -63 -56 -80 -15 -16 -34 -48 -41 -70 -8 -22 -22 -53 -31 -70 -10 -16 -18
-41 -18 -55 0 -14 -9 -42 -19 -61 -53 -99 -54 -505 -1 -621 11 -24 20 -57 20
-74 0 -17 9 -43 21 -58 11 -14 25 -43 31 -64 5 -20 20 -48 33 -62 13 -14 31
-42 42 -62 10 -20 84 -169 166 -330 81 -161 147 -303 147 -314 0 -12 7 -27 15
-34 8 -7 15 -19 15 -26 0 -8 18 -52 40 -98 22 -46 40 -92 40 -103 0 -10 4 -23
9 -28 5 -6 14 -28 21 -50 7 -22 19 -49 26 -60 7 -11 23 -47 35 -80 12 -33 25
-64 29 -70 4 -5 11 -28 14 -50 4 -22 18 -65 30 -95 40 -96 68 -182 86 -260 7
-30 18 -62 25 -70 7 -8 16 -33 19 -55 4 -22 15 -58 25 -80 10 -22 26 -71 36
-110 10 -38 24 -79 32 -90 7 -11 13 -27 13 -36 0 -10 11 -30 24 -46 13 -15 39
-57 58 -93 19 -36 51 -81 72 -100 21 -19 43 -41 49 -48 61 -65 140 -134 187
-162 23 -14 56 -35 75 -46 18 -12 44 -25 56 -29 13 -4 52 -20 86 -36 33 -17
86 -34 116 -39 31 -5 77 -17 104 -27 44 -16 102 -18 688 -23 l641 -5 30 -25
c16 -13 41 -40 54 -60 l25 -35 3 -1468 2 -1469 -32 -49 c-17 -28 -48 -60 -67
-72 -36 -22 -37 -22 -671 -27 -550 -5 -642 -8 -685 -22 -27 -9 -69 -19 -92
-22 -23 -3 -63 -17 -90 -30 -26 -13 -66 -29 -88 -36 -22 -7 -47 -18 -55 -25
-8 -7 -35 -21 -60 -32 -49 -22 -92 -57 -212 -176 -43 -42 -82 -77 -87 -77 -5
0 -14 -12 -21 -27 -22 -54 -55 -110 -82 -142 -16 -18 -28 -40 -28 -50 0 -9 -6
-25 -14 -36 -7 -11 -22 -54 -32 -95 -10 -41 -26 -84 -35 -95 -9 -11 -19 -42
-23 -69 -3 -27 -13 -57 -21 -66 -8 -9 -15 -24 -15 -33 0 -27 -39 -166 -55
-198 -8 -15 -15 -36 -15 -46 0 -10 -11 -38 -24 -63 -13 -25 -27 -65 -31 -90
-4 -24 -11 -51 -15 -60 -5 -8 -18 -42 -31 -75 -12 -33 -28 -67 -35 -75 -7 -8
-17 -35 -24 -60 -7 -25 -15 -49 -19 -55 -4 -5 -15 -35 -26 -65 -10 -30 -29
-75 -42 -99 -13 -24 -23 -52 -23 -61 0 -10 -7 -23 -15 -30 -8 -7 -15 -19 -15
-28 0 -14 -60 -150 -80 -182 -6 -8 -25 -46 -44 -85 -18 -38 -43 -90 -55 -115
-12 -25 -44 -85 -71 -135 -27 -49 -56 -106 -65 -125 -9 -19 -27 -46 -40 -60
-13 -14 -28 -42 -34 -64 -5 -21 -17 -46 -25 -55 -9 -10 -20 -40 -25 -67 -5
-27 -17 -66 -25 -86 -26 -62 -39 -219 -31 -392 5 -140 9 -166 31 -211 13 -29
24 -64 24 -78 0 -14 11 -38 23 -54 13 -15 27 -40 31 -55 3 -15 26 -43 50 -63
33 -26 45 -45 50 -73 5 -32 43 -74 296 -326 160 -159 290 -296 290 -303 0 -8
67 -81 150 -163 160 -161 170 -177 170 -276 0 -56 -39 -147 -71 -164 -10 -6
-36 -28 -56 -50 -21 -22 -67 -68 -102 -102 -36 -35 -92 -92 -127 -128 -34 -36
-69 -72 -78 -80 -9 -8 -70 -69 -136 -135 -66 -66 -125 -124 -131 -130 -6 -5
-52 -53 -104 -105 -51 -52 -99 -101 -107 -108 -24 -23 -253 -250 -263 -261 -8
-9 -167 -168 -210 -210 -61 -61 -262 -262 -270 -270 -5 -6 -90 -91 -188 -188
-98 -98 -185 -186 -194 -195 -28 -31 -79 -48 -147 -48 -90 0 -121 18 -236 133
-52 52 -186 187 -297 298 -469 472 -533 529 -658 576 -22 8 -60 24 -85 36 -54
24 -98 43 -125 52 -41 15 -303 23 -434 14 -105 -7 -141 -14 -166 -29 -18 -11
-44 -20 -59 -20 -14 0 -52 -14 -83 -30 -31 -16 -63 -30 -71 -30 -8 0 -32 -16
-53 -35 -22 -19 -48 -35 -59 -35 -10 0 -23 -6 -27 -13 -8 -13 -133 -77 -150
-77 -4 0 -28 -14 -52 -30 -24 -16 -58 -32 -77 -36 -18 -3 -38 -12 -44 -20 -7
-7 -28 -18 -48 -25 -20 -6 -46 -19 -57 -29 -11 -10 -37 -23 -57 -29 -20 -7
-42 -18 -48 -26 -7 -8 -28 -17 -49 -21 -20 -4 -47 -12 -61 -20 -53 -27 -176
-82 -200 -88 -36 -10 -78 -27 -221 -90 -69 -31 -136 -56 -149 -56 -12 0 -48
-11 -79 -23 -31 -13 -76 -31 -101 -39 -25 -9 -58 -21 -75 -26 -16 -6 -57 -16
-90 -23 -33 -7 -76 -21 -95 -31 -19 -10 -41 -18 -48 -18 -7 0 -34 -8 -60 -19
-26 -10 -76 -27 -112 -36 -87 -23 -167 -60 -208 -96 -18 -16 -41 -29 -51 -29
-10 0 -24 -6 -30 -14 -7 -8 -23 -17 -36 -20 -14 -4 -25 -10 -25 -15 0 -5 -36
-45 -80 -89 -44 -44 -80 -84 -80 -88 0 -5 -9 -15 -20 -21 -11 -7 -38 -47 -61
-88 -22 -41 -47 -79 -55 -83 -8 -5 -21 -36 -29 -70 -8 -35 -21 -73 -29 -85 -8
-12 -19 -47 -25 -77 -5 -30 -18 -77 -28 -105 -16 -45 -18 -111 -23 -685 l-5
-635 -29 -37 c-15 -21 -34 -38 -41 -38 -7 0 -24 -9 -38 -20 -25 -20 -40 -20
-1491 -20 l-1466 0 -39 26 c-22 14 -52 44 -68 66 l-28 41 -5 636 c-5 574 -7
640 -22 681 -10 25 -21 70 -24 100 -4 30 -17 73 -29 95 -13 22 -28 58 -35 80
-7 22 -21 51 -31 64 -11 13 -19 28 -19 33 0 13 -50 89 -77 118 -156 166 -214
218 -273 249 -36 19 -68 40 -73 47 -4 7 -28 20 -55 30 -26 10 -51 20 -57 24
-5 4 -39 15 -75 24 -36 10 -74 22 -85 26 -11 5 -45 16 -75 25 -30 9 -66 22
-80 29 -14 8 -52 20 -85 27 -33 7 -80 21 -104 31 -24 10 -60 23 -80 28 -68 17
-323 109 -348 125 -13 9 -59 28 -101 42 -42 14 -114 43 -158 64 -45 22 -88 39
-96 39 -8 0 -23 7 -34 15 -10 8 -25 15 -33 15 -14 0 -131 51 -161 70 -8 5 -37
20 -65 34 -27 14 -57 30 -65 35 -8 5 -81 42 -162 81 -81 39 -150 75 -153 80
-4 6 -14 10 -24 10 -9 0 -34 16 -54 35 -20 19 -43 35 -51 35 -7 0 -38 14 -69
30 -31 17 -68 30 -82 30 -14 0 -43 9 -65 20 -89 45 -541 45 -618 0 -18 -11
-42 -20 -53 -20 -11 0 -49 -13 -84 -30 -35 -16 -71 -30 -80 -30 -9 0 -31 -16
-51 -35 -19 -19 -39 -35 -45 -35 -9 0 -109 -75 -131 -98 -4 -4 -35 -36 -68
-72 -33 -36 -65 -69 -71 -75 -5 -5 -104 -103 -219 -218 -114 -114 -213 -207
-218 -207 -6 0 -13 -8 -16 -17 -3 -10 -21 -32 -38 -50 -18 -17 -68 -67 -110
-110 l-78 -78 -119 0 c-113 0 -121 1 -145 24 -14 14 -26 30 -26 37 0 6 -18 29
-41 50 -47 45 -415 413 -505 506 -34 35 -67 68 -74 74 -29 28 -54 53 -112 113
-35 35 -69 68 -76 75 -7 6 -30 29 -50 50 -20 22 -57 58 -81 80 -44 41 -166
163 -187 188 -6 7 -29 29 -50 49 -21 20 -56 55 -77 78 -21 22 -44 41 -51 41
-15 0 -176 155 -176 170 0 5 -56 65 -124 135 -68 69 -131 136 -140 150 -9 14
-22 25 -28 25 -12 0 -78 65 -78 77 0 4 -27 30 -60 57 -77 64 -100 110 -100
202 0 51 5 77 20 101 10 18 208 222 440 453 231 232 427 435 435 451 9 16 19
29 24 29 13 0 75 109 89 156 7 23 19 47 27 54 8 7 17 28 21 49 3 20 12 45 18
56 31 51 38 112 37 313 0 232 -5 284 -32 328 -11 17 -19 46 -19 63 0 17 -14
57 -30 88 -17 31 -30 64 -30 74 0 10 -10 25 -22 34 -22 15 -50 60 -83 135 -8
19 -22 49 -31 65 -70 131 -91 173 -97 190 -4 11 -38 80 -77 154 -38 73 -70
139 -70 147 0 8 -9 31 -20 51 -11 21 -20 44 -20 51 0 7 -11 32 -24 55 -13 23
-30 62 -37 87 -7 25 -19 54 -26 65 -7 11 -13 27 -13 36 0 9 -10 36 -23 60 -13
24 -32 67 -42 94 -9 28 -24 64 -31 82 -8 17 -14 40 -14 50 0 11 -11 42 -25 69
-14 27 -25 58 -25 69 0 11 -11 43 -23 70 -13 28 -30 85 -37 129 -8 43 -20 80
-27 83 -6 3 -15 19 -18 36 -3 18 -14 55 -25 82 -10 28 -26 79 -35 115 -10 36
-23 74 -30 85 -6 11 -15 33 -19 49 -4 17 -21 45 -37 63 -16 19 -29 39 -29 46
-1 23 -55 92 -141 180 -47 48 -92 87 -98 87 -6 0 -14 6 -17 14 -3 8 -30 29
-61 48 -30 18 -70 43 -89 55 -19 13 -42 23 -50 23 -8 0 -45 16 -82 35 -37 19
-92 39 -122 44 -30 6 -75 15 -100 22 -32 9 -228 14 -681 18 l-635 6 -35 24
c-19 13 -46 43 -62 66 l-27 43 0 1468 0 1469 30 44 c16 24 44 54 62 67 l32 24
617 0 c500 0 623 3 650 14 19 7 75 21 124 31 50 10 115 30 145 46 30 16 70 31
88 35 17 4 32 10 32 14 0 4 21 17 47 28 27 12 68 39 92 62 25 22 48 40 53 40
11 0 138 130 138 141 0 4 8 10 18 13 18 6 24 15 69 107 12 25 31 54 43 64 11
10 20 23 20 28 0 6 9 29 19 51 10 23 26 69 34 104 9 34 25 74 36 88 14 18 21
41 21 69 0 26 7 51 19 66 10 13 21 38 24 54 3 17 10 56 15 87 6 31 18 67 26
80 8 13 19 41 24 63 6 22 19 63 30 90 11 28 27 75 37 105 9 30 34 92 56 137
21 46 39 91 39 101 0 9 6 26 14 37 7 11 21 43 30 70 9 28 27 72 41 99 14 27
25 55 25 61 0 7 7 18 15 25 8 7 15 24 15 37 0 25 59 154 84 182 7 9 19 32 25
51 6 19 30 71 52 115 23 44 48 94 56 110 8 17 18 37 23 45 5 8 26 49 47 90 21
41 50 88 64 103 15 15 30 44 34 65 4 20 16 47 27 59 11 11 22 41 25 65 3 23
14 60 24 80 43 86 43 473 0 553 -13 25 -21 57 -21 90 0 32 -7 61 -19 82 -11
17 -25 51 -31 74 -7 24 -30 69 -53 102 -23 33 -49 69 -57 82 -8 12 -152 161
-320 330 -367 370 -316 320 -439 438 -122 119 -141 151 -141 245 0 61 4 74 32
118 18 27 46 60 63 74 16 14 95 91 175 173 80 81 153 155 162 165 31 31 727
727 743 742 34 33 466 466 473 473 4 5 52 52 107 105 55 53 116 115 136 137
20 22 55 58 78 80 22 22 49 48 58 58 30 31 73 49 132 54 110 10 118 5 358
-235 186 -185 278 -282 324 -339 5 -7 20 -13 33 -13 17 0 68 -44 184 -160 109
-110 166 -160 181 -160 34 0 57 -16 70 -48 8 -20 26 -35 54 -47 23 -10 65 -28
92 -41 28 -13 55 -24 61 -24 6 0 26 -7 44 -17 95 -47 529 -42 626 8 21 10 52
19 69 19 17 0 40 7 51 15 12 8 45 24 74 35 30 12 59 28 66 37 13 18 77 54 174
97 13 6 79 41 135 73 35 20 151 73 161 73 5 0 29 14 53 30 24 17 52 30 61 30
10 0 23 7 30 14 6 8 28 20 48 26 20 6 51 18 67 25 69 32 192 83 215 90 14 4
30 11 35 15 6 4 24 10 40 14 17 4 55 20 85 35 30 16 73 34 95 41 22 7 45 16
50 20 6 4 28 11 50 14 22 4 58 15 80 25 62 27 161 60 257 85 48 13 93 28 100
33 7 6 34 13 60 15 25 3 59 14 75 25 15 10 51 25 78 32 28 6 62 18 77 26 15 7
41 16 57 20 17 3 47 20 68 36 21 17 50 33 66 36 15 3 32 14 38 24 5 11 16 19
23 19 7 0 24 12 39 28 26 27 41 42 65 65 98 94 202 230 202 262 0 7 7 18 15
25 8 7 15 19 15 27 0 9 13 41 29 72 16 32 38 97 50 147 12 49 26 105 33 124 9
29 20 737 18 1215 0 80 0 81 38 121 78 80 -67 74 1560 74 l1453 0 37 -25z"/>
<path d="M11499 16460 c-36 -21 -166 -40 -274 -40 -72 0 -129 -5 -152 -14 -55
-20 -126 -34 -230 -46 -50 -5 -111 -19 -135 -30 -23 -11 -54 -20 -67 -20 -14
0 -50 -8 -80 -19 -31 -10 -83 -26 -116 -35 -33 -10 -68 -22 -78 -27 -23 -13
-146 -56 -209 -74 -25 -7 -70 -24 -100 -38 -29 -13 -64 -28 -77 -32 -12 -4
-39 -18 -58 -31 -20 -13 -47 -24 -61 -24 -14 0 -35 -11 -48 -25 -13 -14 -34
-25 -47 -25 -13 0 -36 -11 -51 -25 -15 -14 -39 -28 -54 -31 -15 -4 -38 -15
-51 -25 -12 -10 -38 -21 -57 -25 -19 -3 -38 -12 -42 -18 -4 -7 -38 -30 -77
-51 -38 -21 -74 -44 -78 -52 -4 -7 -31 -26 -59 -41 -28 -15 -61 -33 -74 -40
-13 -7 -29 -22 -34 -33 -6 -10 -15 -19 -20 -19 -24 0 -137 -80 -202 -142 -40
-38 -84 -75 -98 -82 -55 -26 -99 -58 -105 -76 -3 -11 -15 -22 -25 -25 -10 -3
-22 -15 -25 -26 -4 -10 -10 -19 -14 -19 -13 0 -86 -74 -100 -103 -8 -15 -32
-35 -53 -44 -21 -9 -38 -20 -38 -25 0 -4 -38 -47 -85 -95 -121 -124 -128 -133
-159 -183 -16 -25 -40 -56 -53 -70 -55 -57 -133 -145 -133 -152 0 -11 -68
-116 -80 -123 -5 -3 -26 -36 -47 -73 -20 -37 -45 -76 -56 -87 -26 -27 -87
-126 -87 -141 0 -7 -6 -14 -13 -17 -7 -3 -19 -25 -26 -48 -7 -24 -23 -55 -36
-69 -13 -14 -26 -39 -30 -57 -3 -17 -13 -37 -21 -44 -8 -6 -14 -19 -14 -29 0
-9 -11 -34 -25 -54 -14 -20 -25 -45 -25 -55 0 -10 -13 -35 -29 -55 -16 -20
-32 -53 -36 -73 -3 -21 -17 -56 -30 -78 -12 -22 -26 -56 -30 -75 -3 -19 -14
-51 -22 -70 -9 -19 -22 -55 -29 -80 -8 -25 -34 -105 -58 -178 -25 -74 -48
-154 -52 -179 -4 -25 -13 -57 -20 -71 -7 -14 -18 -57 -24 -96 -25 -165 -32
-203 -45 -241 -8 -23 -16 -104 -18 -190 -4 -118 -10 -164 -26 -210 -19 -55
-21 -81 -21 -353 0 -227 3 -299 14 -320 17 -35 36 -186 36 -295 0 -47 5 -98
11 -114 15 -37 27 -92 39 -183 18 -131 22 -154 35 -175 7 -11 16 -38 19 -60 8
-51 73 -262 90 -295 8 -14 17 -43 20 -65 4 -22 16 -55 27 -73 10 -18 19 -42
19 -54 0 -19 41 -120 90 -223 10 -22 22 -55 25 -72 4 -18 15 -39 24 -45 21
-16 41 -51 41 -73 0 -10 11 -30 25 -47 14 -16 25 -38 25 -47 0 -10 8 -29 18
-42 10 -13 30 -49 45 -79 32 -68 88 -158 114 -185 11 -11 25 -36 33 -55 7 -19
21 -44 30 -55 9 -11 20 -28 23 -37 4 -10 11 -18 16 -18 5 0 31 -36 57 -80 26
-44 51 -80 56 -80 4 0 14 -11 20 -25 6 -13 18 -27 27 -30 15 -4 101 -106 101
-119 0 -16 57 -83 148 -174 56 -57 102 -107 102 -112 0 -4 13 -13 29 -18 16
-6 37 -22 47 -37 20 -29 210 -225 218 -225 13 0 106 -69 148 -110 98 -93 103
-97 183 -140 22 -12 47 -28 55 -36 24 -23 92 -66 128 -81 17 -7 32 -17 32 -22
0 -5 25 -24 56 -42 30 -19 70 -44 88 -55 18 -12 51 -27 72 -34 22 -7 46 -18
54 -24 8 -7 34 -20 57 -30 23 -10 44 -25 47 -32 3 -8 15 -14 26 -14 27 0 62
-18 78 -42 7 -10 18 -18 24 -18 5 0 32 -11 60 -25 27 -14 57 -25 65 -25 9 0
50 -16 93 -35 43 -19 89 -35 103 -35 13 0 30 -6 36 -14 7 -8 35 -19 64 -26 29
-6 70 -20 92 -30 22 -11 65 -25 95 -33 30 -8 82 -24 115 -36 32 -12 72 -21 88
-21 15 0 41 -7 57 -15 16 -8 62 -20 102 -26 174 -25 215 -33 247 -46 18 -7 69
-13 113 -13 110 0 267 -19 302 -36 23 -11 89 -14 331 -14 203 0 305 4 312 11
16 16 193 39 301 39 57 0 103 5 120 13 15 8 68 19 117 26 50 6 109 16 133 21
23 6 53 10 65 10 13 0 32 7 43 15 10 8 30 15 44 15 14 0 53 10 85 21 33 12 96
30 139 40 44 11 85 24 91 29 6 5 41 19 78 30 36 11 69 25 72 30 3 6 17 10 30
10 13 0 52 13 87 28 34 16 81 35 103 42 22 7 42 16 45 20 7 10 67 40 79 40 6
0 27 11 47 25 20 14 46 25 58 25 12 0 29 9 38 19 9 11 35 25 56 31 22 5 42 16
45 24 3 7 26 19 51 26 26 7 50 18 54 24 7 10 21 19 115 68 21 11 42 28 47 38
5 10 27 25 49 34 41 16 71 37 100 69 8 9 20 17 25 17 13 0 106 59 136 86 14
13 41 37 60 54 19 16 49 42 65 56 17 14 53 40 80 58 28 17 91 72 140 121 50
50 103 98 118 108 15 9 27 26 27 36 0 11 14 30 31 43 17 13 51 43 75 68 53 54
49 51 100 97 22 21 53 61 69 88 15 28 42 64 59 82 17 18 42 46 56 63 14 17 33
38 43 48 9 9 32 41 50 71 17 29 44 68 60 86 15 18 27 35 27 38 0 9 70 121 80
127 12 8 77 113 85 140 4 11 10 20 15 20 5 0 16 22 25 49 9 27 22 52 29 54 7
3 16 19 19 35 3 16 17 42 30 58 13 16 27 45 31 65 3 20 17 45 30 56 13 12 27
36 31 55 4 18 13 40 19 48 7 8 18 35 25 60 7 25 21 60 32 78 10 18 24 54 30
80 7 26 20 63 30 82 9 20 21 54 24 75 4 22 13 47 20 55 7 8 22 54 34 101 11
47 27 99 36 115 8 16 15 45 15 64 0 19 9 52 20 72 10 20 24 74 30 120 14 116
35 219 48 245 7 13 12 66 12 128 0 121 15 235 36 282 22 48 15 558 -9 658 -10
39 -20 134 -23 215 -3 80 -11 163 -18 185 -17 51 -33 128 -46 232 -6 46 -20
102 -30 125 -11 24 -20 58 -20 76 0 18 -6 45 -14 60 -7 15 -24 68 -36 117 -13
50 -29 97 -37 106 -7 8 -13 21 -13 27 0 14 -28 102 -39 122 -5 9 -12 31 -16
50 -4 19 -18 54 -31 76 -13 23 -28 63 -34 90 -6 27 -17 55 -24 64 -8 8 -17 29
-20 46 -4 18 -16 40 -26 49 -10 9 -22 30 -25 46 -4 15 -19 44 -35 64 -16 20
-31 49 -35 65 -3 16 -12 34 -20 40 -8 6 -21 33 -30 60 -9 26 -23 51 -31 54 -7
3 -14 10 -14 16 0 14 -59 112 -79 130 -9 8 -27 37 -41 64 -42 84 -50 95 -71
106 -10 6 -19 15 -19 20 0 13 -59 110 -82 135 -100 108 -124 137 -156 185 -19
30 -57 76 -84 101 -26 26 -48 50 -48 53 0 11 -76 81 -105 96 -17 9 -35 30 -43
52 -8 21 -22 40 -31 43 -9 3 -32 21 -51 40 -19 20 -41 41 -48 48 -7 6 -18 18
-25 25 -53 58 -130 123 -165 138 -15 7 -54 37 -87 68 -33 31 -67 63 -75 71
-22 20 -85 62 -123 81 -17 10 -37 23 -42 31 -12 16 -40 32 -107 64 -27 12 -48
25 -48 30 0 14 -162 115 -219 136 -19 7 -42 19 -50 27 -9 7 -28 16 -43 20 -15
3 -39 17 -54 31 -15 14 -37 25 -49 25 -12 0 -39 13 -60 30 -21 16 -55 35 -76
40 -21 6 -41 14 -43 19 -3 5 -18 12 -33 16 -14 3 -54 19 -87 34 -34 16 -77 32
-96 36 -19 3 -53 15 -75 25 -22 9 -56 21 -75 25 -19 4 -42 13 -50 20 -8 6 -55
22 -105 35 -49 13 -104 30 -122 37 -18 7 -45 13 -60 13 -16 0 -44 9 -64 19
-19 11 -76 24 -125 30 -100 12 -205 33 -247 50 -16 6 -72 11 -125 11 -104 0
-302 23 -346 40 -35 13 -545 13 -567 0z m866 -827 c30 -13 79 -23 121 -26 44
-2 81 -11 95 -21 13 -9 37 -16 53 -16 54 0 150 -22 204 -46 29 -13 69 -24 90
-24 21 0 47 -6 58 -14 11 -8 49 -22 85 -31 35 -8 73 -20 84 -25 11 -4 34 -13
50 -18 17 -5 48 -21 69 -36 21 -14 43 -26 48 -26 12 0 138 -58 203 -93 17 -9
64 -32 105 -52 85 -40 132 -68 181 -106 19 -15 58 -39 87 -54 28 -15 52 -31
52 -35 0 -4 14 -13 31 -19 30 -10 44 -21 152 -114 27 -23 57 -44 66 -47 15 -5
98 -77 162 -142 15 -16 30 -28 33 -28 4 0 31 -24 60 -52 30 -29 68 -63 85 -76
17 -13 34 -34 37 -48 3 -13 11 -24 16 -24 5 0 26 -19 46 -42 20 -24 65 -72 98
-108 34 -36 64 -74 68 -85 3 -11 24 -40 46 -64 22 -24 40 -48 40 -53 0 -5 13
-21 29 -36 30 -28 37 -38 105 -158 22 -38 52 -83 67 -101 15 -18 41 -60 59
-95 17 -35 35 -70 40 -78 5 -8 25 -51 45 -95 20 -44 63 -134 95 -200 32 -66
68 -154 80 -195 12 -41 30 -93 41 -116 10 -23 19 -56 19 -74 0 -19 9 -52 19
-74 19 -40 51 -171 51 -211 0 -11 7 -33 16 -50 9 -17 19 -68 23 -115 4 -61 12
-94 26 -115 19 -29 20 -47 20 -560 l0 -530 -22 -32 c-18 -24 -23 -45 -23 -95
-1 -34 -8 -81 -16 -103 -9 -22 -20 -60 -24 -85 -4 -25 -13 -74 -20 -110 -6
-36 -18 -72 -26 -81 -9 -10 -19 -42 -23 -72 -4 -31 -12 -62 -18 -69 -6 -7 -19
-42 -28 -78 -25 -99 -54 -178 -81 -217 -13 -20 -24 -41 -24 -47 0 -6 -13 -38
-30 -71 -16 -33 -30 -65 -30 -71 0 -6 -9 -23 -20 -37 -12 -14 -26 -41 -32 -59
-6 -18 -17 -40 -24 -48 -7 -8 -20 -35 -30 -60 -10 -25 -29 -63 -43 -84 -14
-21 -32 -51 -40 -65 -7 -14 -23 -37 -35 -51 -34 -38 -76 -105 -76 -118 0 -7
-15 -28 -32 -47 -18 -19 -44 -48 -58 -65 -14 -17 -33 -38 -42 -48 -10 -9 -18
-24 -18 -34 0 -10 -29 -48 -64 -85 -36 -38 -87 -93 -115 -123 -127 -139 -408
-401 -440 -410 -20 -6 -43 -24 -79 -62 -15 -16 -32 -28 -39 -28 -7 0 -17 -9
-23 -21 -6 -11 -31 -29 -55 -39 -23 -10 -46 -23 -49 -29 -4 -5 -19 -16 -34
-24 -89 -46 -114 -61 -119 -73 -3 -8 -46 -35 -97 -61 -249 -127 -342 -172
-357 -173 -9 0 -34 -12 -55 -26 -41 -28 -108 -54 -218 -84 -38 -10 -73 -23
-79 -29 -6 -6 -27 -11 -47 -11 -19 0 -55 -10 -80 -21 -45 -20 -82 -30 -194
-50 -32 -5 -71 -16 -87 -24 -16 -9 -56 -15 -93 -15 -48 0 -77 -6 -107 -22 -37
-19 -65 -22 -248 -30 -206 -8 -740 -3 -816 9 -22 3 -57 14 -77 24 -26 13 -58
19 -105 19 -46 0 -76 5 -91 16 -13 9 -48 20 -80 24 -133 20 -171 30 -208 49
-21 12 -56 21 -77 21 -21 0 -48 6 -60 14 -12 8 -47 21 -77 30 -111 30 -163 53
-475 208 -184 91 -216 109 -255 142 -18 15 -58 41 -89 57 -85 45 -124 69 -146
90 -11 10 -40 35 -65 55 -25 20 -49 42 -53 50 -4 8 -17 14 -28 14 -11 0 -48
28 -83 63 -35 34 -82 76 -105 92 -22 17 -43 37 -46 45 -3 8 -23 25 -45 38 -23
13 -46 35 -53 50 -7 15 -47 63 -89 107 -43 44 -105 108 -138 142 -33 34 -60
67 -60 73 0 13 -75 111 -114 150 -14 14 -32 42 -41 63 -8 20 -19 37 -24 37 -4
0 -26 34 -47 76 -21 41 -44 79 -51 83 -15 8 -29 32 -93 161 -24 47 -51 97 -62
112 -10 14 -18 32 -18 39 0 12 -45 111 -82 179 -42 78 -98 237 -98 278 0 11
-6 25 -14 31 -7 6 -17 35 -20 64 -4 28 -14 62 -22 74 -8 13 -24 71 -35 130
-12 60 -27 123 -35 142 -8 18 -14 63 -14 100 0 51 -5 74 -23 101 l-22 35 0
530 0 530 23 40 c16 30 22 56 22 105 0 40 7 84 19 115 11 27 25 84 32 125 6
41 20 95 31 120 10 25 22 65 25 90 3 25 11 56 19 70 7 14 29 77 49 140 20 63
42 122 50 130 7 8 32 58 55 110 51 118 58 131 70 150 5 8 16 31 25 50 29 66
96 185 115 205 11 12 20 29 20 38 0 9 12 31 28 49 40 48 72 96 72 107 0 9 48
71 97 126 25 27 63 84 63 93 0 4 29 37 65 72 36 35 65 68 65 72 0 4 35 43 78
87 42 44 87 93 100 110 13 17 34 34 47 37 14 3 27 13 30 22 3 10 22 31 42 47
20 17 65 57 100 90 35 33 74 65 86 70 12 6 30 17 39 25 83 72 160 130 172 130
7 0 21 9 31 20 10 11 22 20 28 20 5 0 27 16 48 35 22 19 47 35 58 35 10 0 24
7 31 15 7 8 24 21 39 28 63 32 207 110 216 118 6 4 33 17 62 28 28 11 99 43
156 71 58 27 108 50 112 50 4 0 21 6 38 14 18 8 59 22 92 31 32 9 68 23 79 31
11 8 38 14 59 14 21 0 56 9 78 21 23 11 66 25 97 30 32 6 80 14 107 19 28 4
68 15 90 24 22 8 66 15 98 16 33 0 67 6 80 15 44 28 137 33 607 32 464 -2 476
-3 525 -24z"/>
</g>
</svg>
